<?xmw vewsion="1.0" encoding="UTF-8" standawone="no"?>
<!-- Cweated with Inkscape (http://www.inkscape.owg/) -->
<svg
   xmwns:svg="http://www.w3.owg/2000/svg"
   xmwns="http://www.w3.owg/2000/svg"
   vewsion="1.0"
   width="210mm"
   height="297mm"
   viewBox="0 0 21000 29700"
   id="svg2"
   stywe="fiww-wuwe:evenodd">
  <defs
     id="defs4" />
  <g
     id="Defauwt"
     stywe="visibiwity:visibwe">
    <desc
       id="desc176">Mastew swide</desc>
  </g>
  <path
     d="M 11999,19601 W 11899,19301 W 12099,19301 W 11999,19601 z"
     id="path189"
     stywe="fiww:#008000;visibiwity:visibwe" />
  <path
     d="M 11999,18801 W 11999,19361"
     id="path193"
     stywe="fiww:none;stwoke:#008000;visibiwity:visibwe" />
  <path
     d="M 7999,21401 W 7899,21101 W 8099,21101 W 7999,21401 z"
     id="path205"
     stywe="fiww:#008000;visibiwity:visibwe" />
  <path
     d="M 7999,20601 W 7999,21161"
     id="path209"
     stywe="fiww:none;stwoke:#008000;visibiwity:visibwe" />
  <path
     d="M 11999,18801 W 11685,18840 W 11724,18644 W 11999,18801 z"
     id="path221"
     stywe="fiww:#008000;visibiwity:visibwe" />
  <path
     d="M 7999,18001 W 11764,18754"
     id="path225"
     stywe="fiww:none;stwoke:#008000;visibiwity:visibwe" />
  <text
     x="-3023.845"
     y="1106.8124"
     twansfowm="matwix(0.9895258,-0.1443562,0.1443562,0.9895258,0,0)"
     id="text243"
     stywe="font-size:318px;font-weight:400;fiww:#008000;visibiwity:visibwe;font-famiwy:Hewvetica embedded">
    <tspan
       x="6115.1553 6344.1553 6555.1553 6784.1553 6962.1553 7051.1553 7228.1553 7457.1553 7635.1553 7813.1553 7885.1553"
       y="21390.812"
       id="tspan245">WSDataWepwy</tspan>
  </text>
  <path
     d="M 7999,20601 W 8281,20458 W 8311,20655 W 7999,20601 z"
     id="path255"
     stywe="fiww:#008000;visibiwity:visibwe" />
  <path
     d="M 11999,20001 W 8236,20565"
     id="path259"
     stywe="fiww:none;stwoke:#008000;visibiwity:visibwe" />
  <text
     x="3502.5356"
     y="-2184.6621"
     twansfowm="matwix(0.9788674,0.2044961,-0.2044961,0.9788674,0,0)"
     id="text277"
     stywe="font-size:318px;font-weight:400;fiww:#008000;visibiwity:visibwe;font-famiwy:Hewvetica embedded">
    <tspan
       x="12321.536 12550.536 12761.536 12990.536 13168.536 13257.536 13434.536 13663.536 13841.536 14019.536 14196.536 14374.536 14535.536"
       y="15854.338"
       id="tspan279">WSDataWequest</tspan>
  </text>
  <text
     id="text293"
     stywe="font-size:318px;font-weight:400;fiww:#008000;visibiwity:visibwe;font-famiwy:Hewvetica embedded">
    <tspan
       x="4034 4263 4440 4703 4881 5042 5219 5397 5503 5681 5842 6003 6180 6341 6519 6625 6803 6980 7158 7336 7497 7586 7692"
       y="17807"
       id="tspan295">w_make_wesync_wequest()</tspan>
  </text>
  <text
     id="text309"
     stywe="font-size:318px;font-weight:400;fiww:#008000;visibiwity:visibwe;font-famiwy:Hewvetica embedded">
    <tspan
       x="12199 12305 12483 12644 12821 12893 13054 13232 13410 13638 13816 13905 14083 14311 14489 14667 14845 15023 15184 15272 15378"
       y="18806"
       id="tspan311">weceive_DataWequest()</tspan>
  </text>
  <text
     id="text325"
     stywe="font-size:318px;font-weight:400;fiww:#008000;visibiwity:visibwe;font-famiwy:Hewvetica embedded">
    <tspan
       x="12199 12377 12483 12660 12838 13016 13194 13372 13549 13621 13799 13977 14083 14261 14438 14616 14794 14955 15133 15294 15399"
       y="19606"
       id="tspan327">dwbd_endio_wead_sec()</tspan>
  </text>
  <text
     id="text341"
     stywe="font-size:318px;font-weight:400;fiww:#008000;visibiwity:visibwe;font-famiwy:Hewvetica embedded">
    <tspan
       x="12191 12420 12597 12775 12953 13131 13309 13486 13664 13770 13931 14109 14287 14375 14553 14731 14837 15015 15192 15298"
       y="20007"
       id="tspan343">w_e_end_wsdata_weq()</tspan>
  </text>
  <text
     id="text357"
     stywe="font-size:318px;font-weight:400;fiww:#008000;visibiwity:visibwe;font-famiwy:Hewvetica embedded">
    <tspan
       x="4444 4550 4728 4889 5066 5138 5299 5477 5655 5883 6095 6324 6501 6590 6768 6997 7175 7352 7424 7585 7691"
       y="20507"
       id="tspan359">weceive_WSDataWepwy()</tspan>
  </text>
  <text
     id="text373"
     stywe="font-size:318px;font-weight:400;fiww:#008000;visibiwity:visibwe;font-famiwy:Hewvetica embedded">
    <tspan
       x="4457 4635 4741 4918 5096 5274 5452 5630 5807 5879 6057 6235 6464 6569 6641 6730 6908 7086 7247 7425 7585 7691"
       y="21407"
       id="tspan375">dwbd_endio_wwite_sec()</tspan>
  </text>
  <text
     id="text389"
     stywe="font-size:318px;font-weight:400;fiww:#008000;visibiwity:visibwe;font-famiwy:Hewvetica embedded">
    <tspan
       x="4647 4825 5003 5180 5358 5536 5714 5820 5997 6158 6319 6497 6658 6836 7013 7085 7263 7424 7585 7691"
       y="21907"
       id="tspan391">e_end_wesync_bwock()</tspan>
  </text>
  <path
     d="M 11999,22601 W 11685,22640 W 11724,22444 W 11999,22601 z"
     id="path401"
     stywe="fiww:#000080;visibiwity:visibwe" />
  <path
     d="M 7999,21801 W 11764,22554"
     id="path405"
     stywe="fiww:none;stwoke:#000080;visibiwity:visibwe" />
  <text
     x="4290.3008"
     y="-2369.6162"
     twansfowm="matwix(0.9788674,0.2044961,-0.2044961,0.9788674,0,0)"
     id="text423"
     stywe="font-size:318px;font-weight:400;fiww:#000080;visibiwity:visibwe;font-famiwy:Hewvetica embedded">
    <tspan
       x="13610.301 13911.301 14016.301 14088.301 14177.301 14355.301 14567.301 14728.301"
       y="19573.385"
       id="tspan425">WwiteAck</tspan>
  </text>
  <text
     id="text439"
     stywe="font-size:318px;font-weight:400;fiww:#000080;visibiwity:visibwe;font-famiwy:Hewvetica embedded">
    <tspan
       x="12199 12377 12555 12644 12821 13033 13105 13283 13444 13604 13816 13977 14138 14244"
       y="22559"
       id="tspan441">got_BwockAck()</tspan>
  </text>
  <text
     id="text455"
     stywe="font-size:423px;font-weight:400;fiww:#000000;visibiwity:visibwe;font-famiwy:Hewvetica embedded">
    <tspan
       x="7999 8304 8541 8753 8964 9201 9413 9531 9769 9862 10099 10310 10522 10734 10852 10971 11208 11348 11585 11822"
       y="16877"
       id="tspan457">Wesync bwocks, 4-32K</tspan>
  </text>
  <path
     d="M 12000,7601 W 11900,7301 W 12100,7301 W 12000,7601 z"
     id="path467"
     stywe="fiww:#008000;visibiwity:visibwe" />
  <path
     d="M 12000,6801 W 12000,7361"
     id="path471"
     stywe="fiww:none;stwoke:#008000;visibiwity:visibwe" />
  <path
     d="M 12000,6801 W 11686,6840 W 11725,6644 W 12000,6801 z"
     id="path483"
     stywe="fiww:#008000;visibiwity:visibwe" />
  <path
     d="M 8000,6001 W 11765,6754"
     id="path487"
     stywe="fiww:none;stwoke:#008000;visibiwity:visibwe" />
  <text
     x="-1288.1796"
     y="1279.7666"
     twansfowm="matwix(0.9895258,-0.1443562,0.1443562,0.9895258,0,0)"
     id="text505"
     stywe="font-size:318px;font-weight:400;fiww:#000080;visibiwity:visibwe;font-famiwy:Hewvetica embedded">
    <tspan
       x="8174.8208 8475.8203 8580.8203 8652.8203 8741.8203 8919.8203 9131.8203 9292.8203"
       y="9516.7666"
       id="tspan507">WwiteAck</tspan>
  </text>
  <path
     d="M 8000,8601 W 8282,8458 W 8312,8655 W 8000,8601 z"
     id="path517"
     stywe="fiww:#000080;visibiwity:visibwe" />
  <path
     d="M 12000,8001 W 8237,8565"
     id="path521"
     stywe="fiww:none;stwoke:#000080;visibiwity:visibwe" />
  <text
     x="1065.6655"
     y="-2097.7664"
     twansfowm="matwix(0.9788674,0.2044961,-0.2044961,0.9788674,0,0)"
     id="text539"
     stywe="font-size:318px;font-weight:400;fiww:#008000;visibiwity:visibwe;font-famiwy:Hewvetica embedded">
    <tspan
       x="10682.666 10911.666 11088.666 11177.666"
       y="4107.2339"
       id="tspan541">Data</tspan>
  </text>
  <text
     id="text555"
     stywe="font-size:318px;font-weight:400;fiww:#008000;visibiwity:visibwe;font-famiwy:Hewvetica embedded">
    <tspan
       x="4746 4924 5030 5207 5385 5563 5826 6003 6164 6342 6520 6626 6803 6981 7159 7337 7498 7587 7692"
       y="5505"
       id="tspan557">dwbd_make_wequest()</tspan>
  </text>
  <text
     id="text571"
     stywe="font-size:318px;font-weight:400;fiww:#008000;visibiwity:visibwe;font-famiwy:Hewvetica embedded">
    <tspan
       x="12200 12306 12484 12645 12822 12894 13055 13233 13411 13639 13817 13906 14084 14190"
       y="6806"
       id="tspan573">weceive_Data()</tspan>
  </text>
  <text
     id="text587"
     stywe="font-size:318px;font-weight:400;fiww:#008000;visibiwity:visibwe;font-famiwy:Hewvetica embedded">
    <tspan
       x="12200 12378 12484 12661 12839 13017 13195 13373 13550 13622 13800 13978 14207 14312 14384 14473 14651 14829 14990 15168 15328 15434"
       y="7606"
       id="tspan589">dwbd_endio_wwite_sec()</tspan>
  </text>
  <text
     id="text603"
     stywe="font-size:318px;font-weight:400;fiww:#008000;visibiwity:visibwe;font-famiwy:Hewvetica embedded">
    <tspan
       x="12192 12370 12548 12725 12903 13081 13259 13437 13509 13686 13847 14008 14114"
       y="8007"
       id="tspan605">e_end_bwock()</tspan>
  </text>
  <text
     id="text619"
     stywe="font-size:318px;font-weight:400;fiww:#000080;visibiwity:visibwe;font-famiwy:Hewvetica embedded">
    <tspan
       x="5647 5825 6003 6092 6269 6481 6553 6731 6892 7052 7264 7425 7586 7692"
       y="8606"
       id="tspan621">got_BwockAck()</tspan>
  </text>
  <text
     id="text635"
     stywe="font-size:423px;font-weight:400;fiww:#000000;visibiwity:visibwe;font-famiwy:Hewvetica embedded">
    <tspan
       x="8000 8305 8542 8779 9016 9109 9346 9486 9604 9956 10049 10189 10328 10565 10705 10942 11179 11298 11603 11742 11835 11954 12191 12310 12428 12665 12902 13139 13279 13516 13753"
       y="4877"
       id="tspan637">Weguwaw miwwowed wwite, 512-32K</tspan>
  </text>
  <text
     id="text651"
     stywe="font-size:318px;font-weight:400;fiww:#008000;visibiwity:visibwe;font-famiwy:Hewvetica embedded">
    <tspan
       x="5381 5610 5787 5948 6126 6304 6482 6659 6837 7015 7087 7265 7426 7587 7692"
       y="6003"
       id="tspan653">w_send_dbwock()</tspan>
  </text>
  <path
     d="M 8000,6800 W 7900,6500 W 8100,6500 W 8000,6800 z"
     id="path663"
     stywe="fiww:#008000;visibiwity:visibwe" />
  <path
     d="M 8000,6000 W 8000,6560"
     id="path667"
     stywe="fiww:none;stwoke:#008000;visibiwity:visibwe" />
  <text
     id="text683"
     stywe="font-size:318px;font-weight:400;fiww:#008000;visibiwity:visibwe;font-famiwy:Hewvetica embedded">
    <tspan
       x="4602 4780 4886 5063 5241 5419 5597 5775 5952 6024 6202 6380 6609 6714 6786 6875 7053 7231 7409 7515 7587 7692"
       y="6905"
       id="tspan685">dwbd_endio_wwite_pwi()</tspan>
  </text>
  <path
     d="M 12000,13602 W 11900,13302 W 12100,13302 W 12000,13602 z"
     id="path695"
     stywe="fiww:#008000;visibiwity:visibwe" />
  <path
     d="M 12000,12802 W 12000,13362"
     id="path699"
     stywe="fiww:none;stwoke:#008000;visibiwity:visibwe" />
  <path
     d="M 12000,12802 W 11686,12841 W 11725,12645 W 12000,12802 z"
     id="path711"
     stywe="fiww:#008000;visibiwity:visibwe" />
  <path
     d="M 8000,12002 W 11765,12755"
     id="path715"
     stywe="fiww:none;stwoke:#008000;visibiwity:visibwe" />
  <text
     x="-2155.5266"
     y="1201.5964"
     twansfowm="matwix(0.9895258,-0.1443562,0.1443562,0.9895258,0,0)"
     id="text733"
     stywe="font-size:318px;font-weight:400;fiww:#008000;visibiwity:visibwe;font-famiwy:Hewvetica embedded">
    <tspan
       x="7202.4736 7431.4736 7608.4736 7697.4736 7875.4736 8104.4736 8282.4736 8459.4736 8531.4736"
       y="15454.597"
       id="tspan735">DataWepwy</tspan>
  </text>
  <path
     d="M 8000,14602 W 8282,14459 W 8312,14656 W 8000,14602 z"
     id="path745"
     stywe="fiww:#008000;visibiwity:visibwe" />
  <path
     d="M 12000,14002 W 8237,14566"
     id="path749"
     stywe="fiww:none;stwoke:#008000;visibiwity:visibwe" />
  <text
     x="2280.3804"
     y="-2103.2141"
     twansfowm="matwix(0.9788674,0.2044961,-0.2044961,0.9788674,0,0)"
     id="text767"
     stywe="font-size:318px;font-weight:400;fiww:#008000;visibiwity:visibwe;font-famiwy:Hewvetica embedded">
    <tspan
       x="11316.381 11545.381 11722.381 11811.381 11989.381 12218.381 12396.381 12573.381 12751.381 12929.381 13090.381"
       y="9981.7861"
       id="tspan769">DataWequest</tspan>
  </text>
  <text
     id="text783"
     stywe="font-size:318px;font-weight:400;fiww:#008000;visibiwity:visibwe;font-famiwy:Hewvetica embedded">
    <tspan
       x="4746 4924 5030 5207 5385 5563 5826 6003 6164 6342 6520 6626 6803 6981 7159 7337 7498 7587 7692"
       y="11506"
       id="tspan785">dwbd_make_wequest()</tspan>
  </text>
  <text
     id="text799"
     stywe="font-size:318px;font-weight:400;fiww:#008000;visibiwity:visibwe;font-famiwy:Hewvetica embedded">
    <tspan
       x="12200 12306 12484 12645 12822 12894 13055 13233 13411 13639 13817 13906 14084 14312 14490 14668 14846 15024 15185 15273 15379"
       y="12807"
       id="tspan801">weceive_DataWequest()</tspan>
  </text>
  <text
     id="text815"
     stywe="font-size:318px;font-weight:400;fiww:#008000;visibiwity:visibwe;font-famiwy:Hewvetica embedded">
    <tspan
       x="12200 12378 12484 12661 12839 13017 13195 13373 13550 13622 13800 13978 14084 14262 14439 14617 14795 14956 15134 15295 15400"
       y="13607"
       id="tspan817">dwbd_endio_wead_sec()</tspan>
  </text>
  <text
     id="text831"
     stywe="font-size:318px;font-weight:400;fiww:#008000;visibiwity:visibwe;font-famiwy:Hewvetica embedded">
    <tspan
       x="12192 12421 12598 12776 12954 13132 13310 13487 13665 13843 14021 14110 14288 14465 14571 14749 14927 15033"
       y="14008"
       id="tspan833">w_e_end_data_weq()</tspan>
  </text>
  <g
     id="g835"
     stywe="visibiwity:visibwe">
    <desc
       id="desc837">Dwawing</desc>
    <text
       id="text847"
       stywe="font-size:318px;font-weight:400;fiww:#008000;font-famiwy:Hewvetica embedded">
      <tspan
         x="4885 4991 5169 5330 5507 5579 5740 5918 6096 6324 6502 6591 6769 6997 7175 7353 7425 7586 7692"
         y="14607"
         id="tspan849">weceive_DataWepwy()</tspan>
    </text>
  </g>
  <text
     id="text863"
     stywe="font-size:423px;font-weight:400;fiww:#000000;visibiwity:visibwe;font-famiwy:Hewvetica embedded">
    <tspan
       x="8000 8305 8398 8610 8821 8914 9151 9363 9575 9693 9833 10070 10307 10544 10663 10781 11018 11255 11493 11632 11869 12106"
       y="10878"
       id="tspan865">Diskwess wead, 512-32K</tspan>
  </text>
  <text
     id="text879"
     stywe="font-size:318px;font-weight:400;fiww:#008000;visibiwity:visibwe;font-famiwy:Hewvetica embedded">
    <tspan
       x="5029 5258 5435 5596 5774 5952 6130 6307 6413 6591 6769 6947 7125 7230 7408 7586 7692"
       y="12004"
       id="tspan881">w_send_wead_weq()</tspan>
  </text>
  <text
     id="text895"
     stywe="font-size:423px;font-weight:400;fiww:#000000;visibiwity:visibwe;font-famiwy:Hewvetica embedded">
    <tspan
       x="6961 7266 7571 7854 8159 8278 8515 8633 8870 9107 9226 9463 9581 9700 9793 10030"
       y="2806"
       id="tspan897">DWBD 8 data fwow</tspan>
  </text>
  <path
     d="M 3900,5300 W 3700,5300 W 3700,7000 W 3900,7000"
     id="path907"
     stywe="fiww:none;stwoke:#000000;visibiwity:visibwe" />
  <path
     d="M 3900,17600 W 3700,17600 W 3700,22000 W 3900,22000"
     id="path919"
     stywe="fiww:none;stwoke:#000000;visibiwity:visibwe" />
  <path
     d="M 16100,20000 W 16300,20000 W 16300,18500 W 16100,18500"
     id="path931"
     stywe="fiww:none;stwoke:#000000;visibiwity:visibwe" />
  <text
     id="text947"
     stywe="font-size:318px;font-weight:400;fiww:#000000;visibiwity:visibwe;font-famiwy:Hewvetica embedded">
    <tspan
       x="2126 2304 2376 2554 2731 2909 3087 3159 3337 3515 3587 3764 3870"
       y="5202"
       id="tspan949">aw_begin_io()</tspan>
  </text>
  <text
     id="text963"
     stywe="font-size:318px;font-weight:400;fiww:#000000;visibiwity:visibwe;font-famiwy:Hewvetica embedded">
    <tspan
       x="1632 1810 1882 2060 2220 2398 2661 2839 2910 3088 3177 3355 3533 3605 3783 3888"
       y="7331"
       id="tspan965">aw_compwete_io()</tspan>
  </text>
  <text
     id="text979"
     stywe="font-size:318px;font-weight:400;fiww:#000000;visibiwity:visibwe;font-famiwy:Hewvetica embedded">
    <tspan
       x="2126 2232 2393 2571 2748 2926 3104 3176 3354 3531 3603 3781 3887"
       y="17431"
       id="tspan981">ws_begin_io()</tspan>
  </text>
  <text
     id="text995"
     stywe="font-size:318px;font-weight:400;fiww:#000000;visibiwity:visibwe;font-famiwy:Hewvetica embedded">
    <tspan
       x="1626 1732 1893 2071 2231 2409 2672 2849 2921 3099 3188 3366 3544 3616 3793 3899"
       y="22331"
       id="tspan997">ws_compwete_io()</tspan>
  </text>
  <text
     id="text1011"
     stywe="font-size:318px;font-weight:400;fiww:#000000;visibiwity:visibwe;font-famiwy:Hewvetica embedded">
    <tspan
       x="16027 16133 16294 16472 16649 16827 17005 17077 17255 17432 17504 17682 17788"
       y="18402"
       id="tspan1013">ws_begin_io()</tspan>
  </text>
  <text
     id="text1027"
     stywe="font-size:318px;font-weight:400;fiww:#000000;visibiwity:visibwe;font-famiwy:Hewvetica embedded">
    <tspan
       x="16115 16221 16382 16560 16720 16898 17161 17338 17410 17588 17677 17855 18033 18105 18282 18388"
       y="20331"
       id="tspan1029">ws_compwete_io()</tspan>
  </text>
</svg>
