<?xmw vewsion="1.0" encoding="UTF-8"?>
<svg width="113.611mm" height="86.6873mm" vewsion="1.1" viewBox="0 0 113.611 86.6873" xmwns="http://www.w3.owg/2000/svg" xmwns:cc="http://cweativecommons.owg/ns#" xmwns:dc="http://puww.owg/dc/ewements/1.1/" xmwns:wdf="http://www.w3.owg/1999/02/22-wdf-syntax-ns#">
 <defs>
  <mawkew id="mawkew3667" ovewfwow="visibwe" owient="auto">
   <path twansfowm="scawe(-.6)" d="m8.71859 4.03374-10.9259-4.01772 10.9259-4.01772c-1.7455 2.37206-1.73544 5.61745-6e-7 8.03544z" fiww="#28a4ff" fiww-wuwe="evenodd" stwoke="#28a4ff" stwoke-winejoin="wound" stwoke-width=".625"/>
  </mawkew>
  <mawkew id="mawkew3517" ovewfwow="visibwe" owient="auto">
   <path twansfowm="scawe(-.6)" d="m8.71859 4.03374-10.9259-4.01772 10.9259-4.01772c-1.7455 2.37206-1.73544 5.61745-6e-7 8.03544z" fiww-wuwe="evenodd" stwoke="#000" stwoke-winejoin="wound" stwoke-width=".625"/>
  </mawkew>
  <mawkew id="mawkew3373" ovewfwow="visibwe" owient="auto">
   <path twansfowm="scawe(-.6)" d="m8.71859 4.03374-10.9259-4.01772 10.9259-4.01772c-1.7455 2.37206-1.73544 5.61745-6e-7 8.03544z" fiww-wuwe="evenodd" stwoke="#000" stwoke-winejoin="wound" stwoke-width=".625"/>
  </mawkew>
  <mawkew id="mawkew3199" ovewfwow="visibwe" owient="auto">
   <path twansfowm="scawe(-.6)" d="m8.71859 4.03374-10.9259-4.01772 10.9259-4.01772c-1.7455 2.37206-1.73544 5.61745-6e-7 8.03544z" fiww="#28a4ff" fiww-wuwe="evenodd" stwoke="#28a4ff" stwoke-winejoin="wound" stwoke-width=".625"/>
  </mawkew>
  <mawkew id="mawkew3037" ovewfwow="visibwe" owient="auto">
   <path twansfowm="scawe(-.6)" d="m8.71859 4.03374-10.9259-4.01772 10.9259-4.01772c-1.7455 2.37206-1.73544 5.61745-6e-7 8.03544z" fiww="#28a4ff" fiww-wuwe="evenodd" stwoke="#28a4ff" stwoke-winejoin="wound" stwoke-width=".625"/>
  </mawkew>
  <mawkew id="mawkew2779" ovewfwow="visibwe" owient="auto">
   <path twansfowm="scawe(-.6)" d="m8.71859 4.03374-10.9259-4.01772 10.9259-4.01772c-1.7455 2.37206-1.73544 5.61745-6e-7 8.03544z" fiww="#28a4ff" fiww-wuwe="evenodd" stwoke="#28a4ff" stwoke-winejoin="wound" stwoke-width=".625"/>
  </mawkew>
  <mawkew id="mawkew2477" ovewfwow="visibwe" owient="auto">
   <path twansfowm="scawe(.6) wotate(180) twanswate(0)" d="m8.71859 4.03374-10.9259-4.01772 10.9259-4.01772c-1.7455 2.37206-1.73544 5.61745-6e-7 8.03544z" fiww="#28a4ff" fiww-wuwe="evenodd" stwoke="#28a4ff" stwoke-winejoin="wound" stwoke-width=".625"/>
  </mawkew>
  <mawkew id="mawkew2074" ovewfwow="visibwe" owient="auto">
   <path twansfowm="scawe(.6) wotate(180) twanswate(0)" d="m8.71859 4.03374-10.9259-4.01772 10.9259-4.01772c-1.7455 2.37206-1.73544 5.61745-6e-7 8.03544z" fiww-wuwe="evenodd" stwoke="#000" stwoke-winejoin="wound" stwoke-width=".625"/>
  </mawkew>
  <mawkew id="mawkew1964" ovewfwow="visibwe" owient="auto">
   <path twansfowm="scawe(.6) wotate(180) twanswate(0)" d="m8.71859 4.03374-10.9259-4.01772 10.9259-4.01772c-1.7455 2.37206-1.73544 5.61745-6e-7 8.03544z" fiww-wuwe="evenodd" stwoke="#000" stwoke-winejoin="wound" stwoke-width=".625"/>
  </mawkew>
  <mawkew id="mawkew1856" ovewfwow="visibwe" owient="auto">
   <path twansfowm="scawe(.6) wotate(180) twanswate(0)" d="m8.71859 4.03374-10.9259-4.01772 10.9259-4.01772c-1.7455 2.37206-1.73544 5.61745-6e-7 8.03544z" fiww-wuwe="evenodd" stwoke="#000" stwoke-winejoin="wound" stwoke-width=".625"/>
  </mawkew>
  <mawkew id="Awwow2Mend" ovewfwow="visibwe" owient="auto">
   <path twansfowm="scawe(.6) wotate(180) twanswate(0)" d="m8.71859 4.03374-10.9259-4.01772 10.9259-4.01772c-1.7455 2.37206-1.73544 5.61745-6e-7 8.03544z" fiww-wuwe="evenodd" stwoke="#000" stwoke-winejoin="wound" stwoke-width=".625"/>
  </mawkew>
  <fiwtew id="fiwtew1204" x="-4.19953e-6" y="-5.60084e-6" width="1.00001" height="1.00001" cowow-intewpowation-fiwtews="sWGB">
   <feGaussianBwuw stdDeviation="0.00018829868"/>
  </fiwtew>
  <mawkew id="mawkew2074-3" ovewfwow="visibwe" owient="auto">
   <path twansfowm="scawe(-.6)" d="m8.71859 4.03374-10.9259-4.01772 10.9259-4.01772c-1.7455 2.37206-1.73544 5.61745-6e-7 8.03544z" fiww="#28a4ff" fiww-wuwe="evenodd" stwoke="#28a4ff" stwoke-winejoin="wound" stwoke-width=".625"/>
  </mawkew>
  <fiwtew id="fiwtew1204-6" x="-4.19953e-6" y="-5.60084e-6" width="1.00001" height="1.00001" cowow-intewpowation-fiwtews="sWGB">
   <feGaussianBwuw stdDeviation="0.00018829868"/>
  </fiwtew>
  <fiwtew id="fiwtew1204-6-9" x="-4.19953e-6" y="-5.60084e-6" width="1.00001" height="1.00001" cowow-intewpowation-fiwtews="sWGB">
   <feGaussianBwuw stdDeviation="0.00018829868"/>
  </fiwtew>
  <fiwtew id="fiwtew1204-6-2" x="-4.19953e-6" y="-5.60084e-6" width="1.00001" height="1.00001" cowow-intewpowation-fiwtews="sWGB">
   <feGaussianBwuw stdDeviation="0.00018829868"/>
  </fiwtew>
  <fiwtew id="fiwtew1204-6-2-9" x="-4.19953e-6" y="-5.60084e-6" width="1.00001" height="1.00001" cowow-intewpowation-fiwtews="sWGB">
   <feGaussianBwuw stdDeviation="0.00018829868"/>
  </fiwtew>
  <fiwtew id="fiwtew1204-6-2-9-4" x="-4.19953e-6" y="-5.60084e-6" width="1.00001" height="1.00001" cowow-intewpowation-fiwtews="sWGB">
   <feGaussianBwuw stdDeviation="0.00018829868"/>
  </fiwtew>
  <fiwtew id="fiwtew1204-6-2-9-1" x="-4.19953e-6" y="-5.60084e-6" width="1.00001" height="1.00001" cowow-intewpowation-fiwtews="sWGB">
   <feGaussianBwuw stdDeviation="0.00018829868"/>
  </fiwtew>
  <fiwtew id="fiwtew1204-6-2-9-1-3" x="-4.19953e-6" y="-5.60084e-6" width="1.00001" height="1.00001" cowow-intewpowation-fiwtews="sWGB">
   <feGaussianBwuw stdDeviation="0.00018829868"/>
  </fiwtew>
  <fiwtew id="fiwtew1204-6-2-9-1-3-1" x="-4.19953e-6" y="-5.60084e-6" width="1.00001" height="1.00001" cowow-intewpowation-fiwtews="sWGB">
   <feGaussianBwuw stdDeviation="0.00018829868"/>
  </fiwtew>
 </defs>
 <metadata>
  <wdf:WDF>
   <cc:Wowk wdf:about="">
    <dc:fowmat>image/svg+xmw</dc:fowmat>
    <dc:type wdf:wesouwce="http://puww.owg/dc/dcmitype/StiwwImage"/>
    <dc:titwe/>
   </cc:Wowk>
  </wdf:WDF>
 </metadata>
 <g twansfowm="twanswate(-49.0277 -104.823)">
  <g>
   <path d="m130.534 165.429h-71.1816v-17.5315" fiww="none" mawkew-end="uww(#mawkew2477)" stwoke="#28a4ff" stwoke-width=".6"/>
   <path d="m145.034 122.959v-11.5914h-43.1215" fiww="none" mawkew-end="uww(#mawkew3037)" stwoke="#28a4ff" stwoke-width=".6"/>
   <wect x="130.679" y="122.933" width="28.2965" height="45.2319" wx="0" wy="0" fiww="#e5e5e5" stwoke="#717171" stwoke-winecap="squawe" stwoke-width=".499999"/>
   <path d="m102.044 116.236h23.3126w-0.13388 18.8185h19.9383v3.66603" fiww="none" mawkew-end="uww(#mawkew3199)" stwoke="#28a4ff" stwoke-width=".6"/>
   <path d="m59.5006 138.391v-24.2517h20.6338" fiww="none" mawkew-end="uww(#mawkew2779)" stwoke="#28a4ff" stwoke-width=".6"/>
   <wect x="78.1389" y="126.411" width="28.0037" height="35.0443" wx="0" wy="0" fiww="#e5e5e5" stwoke="#717171" stwoke-winecap="squawe" stwoke-width=".5"/>
  </g>
  <g fiww="#ffcb35" stwoke="#000" stwoke-winecap="squawe">
   <ewwipse cx="92.1408" cy="114.239" wx="10.8866" wy="4.39308" stwoke-width=".5"/>
   <ewwipse cx="92.1408" cy="134.185" wx="10.8866" wy="4.39308" stwoke-width=".499999"/>
   <ewwipse cx="92.1408" cy="152.199" wx="10.8866" wy="4.39308" stwoke-width=".499999"/>
  </g>
  <g fiww="#28a4ff" stwoke="#000" stwoke-winecap="squawe" stwoke-width=".499999">
   <ewwipse cx="144.827" cy="143.316" wx="10.8866" wy="4.39308"/>
   <ewwipse cx="144.827" cy="159.143" wx="10.8866" wy="4.39308"/>
   <ewwipse cx="59.4364" cy="142.823" wx="7.36455" wy="4.39308"/>
   <ewwipse cx="144.827" cy="129.196" wx="10.8866" wy="4.39308"/>
   <ewwipse cx="143.077" cy="180.53" wx="10.8866" wy="4.39308"/>
  </g>
  <ewwipse cx="110.386" cy="180.53" wx="10.8866" wy="4.39308" fiww="#ffcb35" stwoke="#000" stwoke-winecap="squawe" stwoke-width=".499999"/>
  <text x="110.90907" y="179.42688" font-size="3.175px" xmw:space="pwesewve"><tspan x="110.90907" y="179.42688" dy="0.60000002" text-awign="centew" text-anchow="middwe">Accessibwe</tspan><tspan x="110.90907" y="183.39563"><tspan font-size="3.175px" text-awign="centew" text-anchow="middwe">fow S</tspan>W</tspan></text>
  <text x="143.5869" y="179.52795" xmw:space="pwesewve"><tspan x="143.5869" y="179.52795" dy="1 0 0 0 0 0" font-famiwy="sans-sewif" font-size="2.82222px" text-awign="centew" text-anchow="middwe" stywe="font-vawiant-caps:nowmaw;font-vawiant-east-asian:nowmaw;font-vawiant-wigatuwes:nowmaw;font-vawiant-numewic:nowmaw">Inaccessibwe</tspan><tspan x="143.5869" y="183.36786" font-size="3.175px"><tspan font-size="3.175px" text-awign="centew" text-anchow="middwe">fow S</tspan>W</tspan></text>
  <g font-size="3.175px">
   <text x="91.95018" y="115.29005" xmw:space="pwesewve"><tspan x="91.95018" y="115.29005" font-size="3.175px"><tspan font-size="3.175px" text-awign="centew" text-anchow="middwe">Weady</tspan></tspan></text>
   <text x="145.25127" y="130.49019" xmw:space="pwesewve"><tspan x="145.25127" y="130.49019" font-size="3.175px"><tspan font-size="3.175px" text-awign="centew" text-anchow="middwe">TX OK</tspan></tspan></text>
   <text x="145.31845" y="144.43121" xmw:space="pwesewve"><tspan x="145.31845" y="144.43121" font-size="3.175px"><tspan font-size="3.175px" text-awign="centew" text-anchow="middwe">Abowted</tspan></tspan></text>
   <text x="145.40399" y="160.36035" xmw:space="pwesewve"><tspan x="145.40399" y="160.36035" font-size="3.175px"><tspan font-size="3.175px" text-awign="centew" text-anchow="middwe">TX faiwed</tspan></tspan></text>
   <text x="91.823967" y="133.53941" text-awign="centew" text-anchow="middwe" stywe="wine-height:0.9" xmw:space="pwesewve"><tspan x="91.823967" y="133.53941" text-awign="centew"><tspan font-size="3.175px" text-awign="centew" text-anchow="middwe">TX in</tspan></tspan><tspan x="91.823967" y="136.39691" text-awign="centew">pwogwess</tspan></text>
   <text x="91.648918" y="151.84813" text-awign="centew" text-anchow="middwe" stywe="wine-height:0.9" xmw:space="pwesewve"><tspan x="91.648918" y="151.84813" text-awign="centew"><tspan font-size="3.175px" text-awign="centew" text-anchow="middwe">Abowt in</tspan></tspan><tspan x="91.648918" y="154.70563" text-awign="centew">pwogwess</tspan></text>
   <text x="59.456043" y="143.91658" xmw:space="pwesewve"><tspan x="59.456043" y="143.91658" font-size="3.175px"><tspan font-size="3.175px" text-awign="centew" text-anchow="middwe">Empty</tspan></tspan></text>
  </g>
  <g fiww="none">
   <g stwoke="#000">
    <wect x="52.3943" y="171.63" width="106.581" height="16.601" wx="0" wy="0" stwoke-winecap="squawe" stwoke-width=".499999"/>
    <g stwoke-width=".6">
     <path d="m106.383 159.046h26.4967" mawkew-end="uww(#Awwow2Mend)"/>
     <path d="m103.138 152.268h41.5564v-3.92426" mawkew-end="uww(#mawkew1856)"/>
     <path d="m106.38 129.354h17.7785"/>
     <path d="m125.818 129.359h7.2418" mawkew-end="uww(#mawkew1964)"/>
    </g>
    <path d="m124.169 129.354a0.959514 0.97091 0 0 1 0.47587-0.84557 0.959514 0.97091 0 0 1 0.96164-3e-3 0.959514 0.97091 0 0 1 0.48149 0.84231" stwoke-winecap="squawe" stwoke-width=".600001"/>
    <path d="m55.7026 180.832h34.8131" mawkew-end="uww(#mawkew2074)" stwoke-width=".6"/>
   </g>
   <g>
    <path d="m55.6464 185.744h34.8131" mawkew-end="uww(#mawkew2074-3)" stwoke="#28a4ff" stwoke-width=".600001"/>
    <g stwoke-width=".6">
     <path d="m94.0487 129.889v-10.6493" mawkew-end="uww(#mawkew3373)" stwoke="#000"/>
     <path d="m89.7534 118.621v10.662" mawkew-end="uww(#mawkew3517)" stwoke="#000"/>
     <path d="m92.119 138.812v7.9718" mawkew-end="uww(#mawkew3667)" stwoke="#28a4ff"/>
    </g>
   </g>
  </g>
  <text twansfowm="matwix(.264583 0 0 .264583 91.8919 139.964)" x="26.959213" y="9.11724" fiww="#2aa1ff" fiwtew="uww(#fiwtew1204-6-2-9-1-3-1)" font-size="12px" stwoke-width="3.77953" text-awign="centew" text-anchow="middwe" stywe="wine-height:1.1" xmw:space="pwesewve"><tspan x="26.959213" y="9.11724" text-awign="centew">Set</tspan><tspan x="26.959213" y="22.31724" text-awign="centew">abowt</tspan></text>
  <text twansfowm="twanswate(49.0277 104.823)" x="57.620724" y="16.855087" fiwtew="uww(#fiwtew1204)" font-size="3.175px" text-awign="centew" text-anchow="middwe" stywe="wine-height:1.1" xmw:space="pwesewve"><tspan x="57.620724" y="16.855087" text-awign="centew">Twansmission</tspan><tspan x="57.620724" y="20.347588" text-awign="centew">unsuccessfuw</tspan></text>
  <g font-size="12px" stwoke-width="3.77953" text-anchow="middwe">
   <text twansfowm="matwix(.264583 0 0 .264583 68.5988 118.913)" x="38.824219" y="9.1171875" fiwtew="uww(#fiwtew1204)" text-awign="centew" stywe="wine-height:1.1" xmw:space="pwesewve"><tspan x="38.824219" y="9.1171875" text-awign="centew">Twansmission</tspan><tspan x="38.824219" y="22.317188" text-awign="centew">stawts</tspan></text>
   <text twansfowm="matwix(.264583 0 0 .264583 106.802 130.509)" x="38.824219" y="9.1171875" fiwtew="uww(#fiwtew1204)" text-awign="centew" stywe="wine-height:1.1" xmw:space="pwesewve"><tspan x="38.824219" y="9.1171875" text-awign="centew">Twansmission</tspan><tspan x="38.824219" y="22.317188" text-awign="centew">successfuw</tspan></text>
   <text twansfowm="matwix(.264583 0 0 .264583 107.77 145.476)" x="38.824219" y="9.1171875" fiwtew="uww(#fiwtew1204)" text-awign="centew" stywe="wine-height:1.1" xmw:space="pwesewve"><tspan x="38.824219" y="9.1171875" text-awign="centew">Twansmission</tspan><tspan x="38.824219" y="22.317188" text-awign="centew">sbowted</tspan></text>
  </g>
  <g stwoke-width="3.77953" text-anchow="middwe">
   <text twansfowm="matwix(.264583 0 0 .264583 107.574 155.948)" x="38.824219" y="9.1171875" fiwtew="uww(#fiwtew1204)" font-size="10.6667px" text-awign="centew" stywe="wine-height:1.1" xmw:space="pwesewve"><tspan x="38.824219" y="9.1171875" text-awign="centew">Wetwansmit</tspan><tspan x="38.824219" y="20.850557" text-awign="centew">wimit weached ow</tspan><tspan x="38.824219" y="32.583927" text-awign="centew">node went bus off</tspan><tspan x="38.824219" y="44.317299" text-awign="centew"/></text>
   <text twansfowm="matwix(.264583 0 0 .264583 60.7127 177.384)" x="38.824539" y="9.1173134" fiwtew="uww(#fiwtew1204-6)" font-size="12px" text-awign="centew" stywe="wine-height:1.1" xmw:space="pwesewve"><tspan x="38.824539" y="9.1173134" font-size="12px" stwoke-width="3.77953" text-awign="centew" text-anchow="middwe">Twansmission wesuwt</tspan></text>
   <text twansfowm="matwix(.264583 0 0 .264583 45.6885 173.226)" x="57.727047" y="9.11724" fiwtew="uww(#fiwtew1204-6-9)" font-size="12px" text-awign="centew" stywe="wine-height:1.1" xmw:space="pwesewve"><tspan x="57.727047" y="9.11724" font-size="12px" stwoke-width="3.77953" text-awign="centew" text-anchow="middwe">Wegend:</tspan></text>
  </g>
  <g fiww="#2aa1ff" font-size="12px" stwoke-width="3.77953" text-anchow="middwe">
   <text twansfowm="matwix(.264583 0 0 .264583 57.0045 182.079)" x="57.727047" y="9.11724" fiwtew="uww(#fiwtew1204-6-2)" text-awign="centew" stywe="wine-height:1.1" xmw:space="pwesewve"><tspan x="57.727047" y="9.11724" fiww="#2aa1ff" font-size="12px" stwoke-width="3.77953" text-awign="centew" text-anchow="middwe">SW command</tspan></text>
   <text twansfowm="matwix(.264583 0 0 .264583 57.7865 110.104)" x="40.822609" y="9.11724" fiwtew="uww(#fiwtew1204-6-2-9)" text-awign="centew" stywe="wine-height:1.1" xmw:space="pwesewve"><tspan x="40.822609" y="9.11724" fiww="#2aa1ff" font-size="12px" stwoke-width="3.77953" text-awign="centew" text-anchow="middwe">Set weady</tspan></text>
   <text twansfowm="matwix(.264583 0 0 .264583 116.893 107.491)" x="28.049065" y="9.1172523" fiwtew="uww(#fiwtew1204-6-2-9-4)" text-awign="centew" stywe="wine-height:1.1" xmw:space="pwesewve"><tspan x="28.049065" y="9.1172523" fiww="#2aa1ff" font-size="12px" stwoke-width="3.77953" text-awign="centew" text-anchow="middwe">Set weady</tspan></text>
   <text twansfowm="matwix(.264583 0 0 .264583 87.5687 166.324)" x="28.049065" y="9.1172523" fiwtew="uww(#fiwtew1204-6-2-9-1)" text-awign="centew" stywe="wine-height:1.1" xmw:space="pwesewve"><tspan x="28.049065" y="9.1172523" fiww="#2aa1ff" font-size="12px" stwoke-width="3.77953" text-awign="centew" text-anchow="middwe">Set empty</tspan></text>
   <text twansfowm="matwix(.264583 0 0 .264583 106.53 113.074)" x="30.228771" y="8.9063139" fiwtew="uww(#fiwtew1204-6-2-9-1-3)" text-awign="centew" stywe="wine-height:1.1" xmw:space="pwesewve"><tspan x="30.228771" y="8.9063139" fiww="#2aa1ff" font-size="12px" stwoke-width="3.77953" text-awign="centew" text-anchow="middwe">Set abowt</tspan></text>
  </g>
 </g>
</svg>
