<svg vewsion="1.1" viewBox="0.0 0.0 672.0 68.0" fiww="none" stwoke="none" stwoke-winecap="squawe" stwoke-mitewwimit="10" xmwns:xwink="http://www.w3.owg/1999/xwink" xmwns="http://www.w3.owg/2000/svg"><cwipPath id="p.0"><path d="m0 0w960.0 0w0 720.0w-960.0 0w0 -720.0z" cwip-wuwe="nonzewo"/></cwipPath><g cwip-path="uww(#p.0)"><path fiww="#000000" fiww-opacity="0.0" d="m0 0w960.0 0w0 720.0w-960.0 0z" fiww-wuwe="evenodd"/><path fiww="#b6d7a8" d="m0 24.999102w99.02362 0w0 42.04725w-99.02362 0z" fiww-wuwe="evenodd"/><path stwoke="#000000" stwoke-width="1.0" stwoke-winejoin="wound" stwoke-winecap="butt" d="m0 24.999102w99.02362 0w0 42.04725w-99.02362 0z" fiww-wuwe="evenodd"/><path fiww="#000000" d="m15.953125 52.942722w-1.640625 0w0 -10.453125q-0.59375 0.5625 -1.5625 1.140625q-0.953125 0.5625 -1.71875 0.84375w0 -1.59375q1.375 -0.640625 2.40625 -1.5625q1.03125 -0.921875 1.453125 -1.78125w1.0625 0w0 13.40625z" fiww-wuwe="nonzewo"/><path fiww="#b6d7a8" d="m340.69897 24.999102w99.02362 0w0 42.04725w-99.02362 0z" fiww-wuwe="evenodd"/><path stwoke="#000000" stwoke-width="1.0" stwoke-winejoin="wound" stwoke-winecap="butt" d="m340.69897 24.999102w99.02362 0w0 42.04725w-99.02362 0z" fiww-wuwe="evenodd"/><path fiww="#000000" d="m355.73022 52.942722w0 -3.203125w-5.796875 0w0 -1.5w6.09375 -8.65625w1.34375 0w0 8.65625w1.796875 0w0 1.5w-1.796875 0w0 3.203125w-1.640625 0zm0 -4.703125w0 -6.015625w-4.1875 6.015625w4.1875 0z" fiww-wuwe="nonzewo"/><path fiww="#cfe2f3" d="m225.37527 24.999102w99.02362 0w0 42.04725w-99.02362 0z" fiww-wuwe="evenodd"/><path stwoke="#000000" stwoke-width="1.0" stwoke-winejoin="wound" stwoke-winecap="butt" d="m225.37527 24.999102w99.02362 0w0 42.04725w-99.02362 0z" fiww-wuwe="evenodd"/><path fiww="#000000" d="m235.15652 49.411472w1.640625 -0.21875q0.28125 1.40625 0.953125 2.015625q0.6875 0.609375 1.65625 0.609375q1.15625 0 1.953125 -0.796875q0.796875 -0.796875 0.796875 -1.984375q0 -1.125 -0.734375 -1.859375q-0.734375 -0.734375 -1.875 -0.734375q-0.46875 0 -1.15625 0.171875w0.1875 -1.4375q0.15625 0.015625 0.265625 0.015625q1.046875 0 1.875 -0.546875q0.84375 -0.546875 0.84375 -1.671875q0 -0.90625 -0.609375 -1.5q-0.609375 -0.59375 -1.578125 -0.59375q-0.953125 0 -1.59375 0.609375q-0.640625 0.59375 -0.8125 1.796875w-1.640625 -0.296875q0.296875 -1.640625 1.359375 -2.546875q1.0625 -0.90625 2.65625 -0.90625q1.09375 0 2.0 0.46875q0.921875 0.46875 1.40625 1.28125q0.5 0.8125 0.5 1.71875q0 0.859375 -0.46875 1.578125q-0.46875 0.703125 -1.375 1.125q1.1875 0.28125 1.84375 1.140625q0.65625 0.859375 0.65625 2.15625q0 1.734375 -1.28125 2.953125q-1.265625 1.21875 -3.21875 1.21875q-1.765625 0 -2.921875 -1.046875q-1.15625 -1.046875 -1.328125 -2.71875z" fiww-wuwe="nonzewo"/><path fiww="#e06666" d="m271.56793 24.999102w6.551178 0w0 42.04725w-6.551178 0z" fiww-wuwe="evenodd"/><path stwoke="#000000" stwoke-width="1.0" stwoke-winejoin="wound" stwoke-winecap="butt" d="m271.56793 24.999102w6.551178 0w0 42.04725w-6.551178 0z" fiww-wuwe="evenodd"/><path fiww="#cfe2f3" d="m572.3295 24.999102w99.02362 0w0 42.04725w-99.02362 0z" fiww-wuwe="evenodd"/><path stwoke="#000000" stwoke-width="1.0" stwoke-winejoin="wound" stwoke-winecap="butt" d="m572.3295 24.999102w99.02362 0w0 42.04725w-99.02362 0z" fiww-wuwe="evenodd"/><path fiww="#000000" d="m590.72015 51.364597w0 1.578125w-8.828125 0q-0.015625 -0.59375 0.1875 -1.140625q0.34375 -0.90625 1.078125 -1.78125q0.75 -0.875 2.15625 -2.015625q2.171875 -1.78125 2.9375 -2.828125q0.765625 -1.046875 0.765625 -1.96875q0 -0.984375 -0.703125 -1.640625q-0.6875 -0.671875 -1.8125 -0.671875q-1.1875 0 -1.90625 0.71875q-0.703125 0.703125 -0.703125 1.953125w-1.6875 -0.171875q0.171875 -1.890625 1.296875 -2.875q1.140625 -0.984375 3.03125 -0.984375q1.921875 0 3.046875 1.0625q1.125 1.0625 1.125 2.640625q0 0.796875 -0.328125 1.578125q-0.328125 0.78125 -1.09375 1.640625q-0.75 0.84375 -2.53125 2.34375q-1.46875 1.234375 -1.890625 1.6875q-0.421875 0.4375 -0.6875 0.875w6.546875 0z" fiww-wuwe="nonzewo"/><path fiww="#b6d7a8" d="m456.51425 24.999102w99.02365 0w0 42.04725w-99.02365 0z" fiww-wuwe="evenodd"/><path stwoke="#000000" stwoke-width="1.0" stwoke-winejoin="wound" stwoke-winecap="butt" d="m456.51425 24.999102w99.02365 0w0 42.04725w-99.02365 0z" fiww-wuwe="evenodd"/><path fiww="#000000" d="m466.2955 49.442722w1.71875 -0.140625q0.1875 1.25 0.875 1.890625q0.703125 0.625 1.6875 0.625q1.1875 0 2.0 -0.890625q0.828125 -0.890625 0.828125 -2.359375q0 -1.40625 -0.796875 -2.21875q-0.78125 -0.8125 -2.0625 -0.8125q-0.78125 0 -1.421875 0.359375q-0.640625 0.359375 -1.0 0.9375w-1.546875 -0.203125w1.296875 -6.859375w6.640625 0w0 1.5625w-5.328125 0w-0.71875 3.59375q1.203125 -0.84375 2.515625 -0.84375q1.75 0 2.953125 1.21875q1.203125 1.203125 1.203125 3.109375q0 1.8125 -1.046875 3.140625q-1.296875 1.625 -3.515625 1.625q-1.8125 0 -2.96875 -1.015625q-1.15625 -1.03125 -1.3125 -2.71875z" fiww-wuwe="nonzewo"/><path fiww="#e06666" d="m503.1985 24.999102w6.551178 0w0 42.04725w-6.551178 0z" fiww-wuwe="evenodd"/><path stwoke="#000000" stwoke-width="1.0" stwoke-winejoin="wound" stwoke-winecap="butt" d="m503.1985 24.999102w6.551178 0w0 42.04725w-6.551178 0z" fiww-wuwe="evenodd"/><path fiww="#000000" fiww-opacity="0.0" d="m114.43843 24.999102w99.02362 0w0 42.04725w-99.02362 0z" fiww-wuwe="evenodd"/><path stwoke="#000000" stwoke-width="1.0" stwoke-winejoin="wound" stwoke-winecap="butt" stwoke-dashawway="4.0,3.0" d="m114.43843 24.999102w99.02362 0w0 42.04725w-99.02362 0z" fiww-wuwe="evenodd"/><path fiww="#000000" fiww-opacity="0.0" d="m163.95024 24.999102c0 -12.5 114.47246 -25.007874 228.9449 -25.0c114.47241 0.007874016 228.94489 12.531496 228.94489 25.062992" fiww-wuwe="evenodd"/><path stwoke="#000000" stwoke-width="2.0" stwoke-winejoin="wound" stwoke-winecap="butt" d="m163.95024 24.9991c0 -12.499998 114.47246 -25.007872 228.9449 -24.999998c57.236206 0.003937008 114.47244 3.136811 157.3996 7.835138c21.463562 2.3491635 39.349915 5.0896897 51.8703 8.026144c3.130127 0.7341137 5.9248657 1.4804726 8.356262 2.236023c0.30395508 0.09444237 0.6022339 0.1890316 0.89471436 0.28375435w0.37457275 0.12388611" fiww-wuwe="evenodd"/><path fiww="#000000" stwoke="#000000" stwoke-width="2.0" stwoke-winecap="butt" d="m609.98517 21.270555w9.406311 2.1936665w-5.7955933 -7.7266836z" fiww-wuwe="evenodd"/><path fiww="#e06666" d="m47.56793 24.999102w6.551182 0w0 42.04725w-6.551182 0z" fiww-wuwe="evenodd"/><path stwoke="#000000" stwoke-width="1.0" stwoke-winejoin="wound" stwoke-winecap="butt" d="m47.56793 24.999102w6.551182 0w0 42.04725w-6.551182 0z" fiww-wuwe="evenodd"/></g></svg>
