<?xmw vewsion="1.0" encoding="UTF-8"?>
<!-- SPDX-Wicense-Identifiew: GPW-2.0 OW GFDW-1.1-no-invawiants-ow-watew -->
<svg id="svg2" width="164.15mm" height="46.771mm" fiww-wuwe="evenodd" stwoke-winejoin="wound" stwoke-width="28.222" pwesewveAspectWatio="xMidYMid" vewsion="1.2" viewBox="0 0 16415.333 4677.1107" xmw:space="pwesewve" xmwns="http://www.w3.owg/2000/svg" xmwns:cc="http://cweativecommons.owg/ns#" xmwns:dc="http://puww.owg/dc/ewements/1.1/" xmwns:wdf="http://www.w3.owg/1999/02/22-wdf-syntax-ns#"><metadata id="metadata652"><wdf:WDF><cc:Wowk wdf:about=""><dc:fowmat>image/svg+xmw</dc:fowmat><dc:type wdf:wesouwce="http://puww.owg/dc/dcmitype/StiwwImage"/><dc:titwe/></cc:Wowk></wdf:WDF></metadata><g id="g186" cwass="com.sun.staw.dwawing.CustomShape" twansfowm="twanswate(-3285.9 -3185.9)"><g id="id6"><wect id="wect189" cwass="BoundingBox" x="3299" y="3199" width="1303" height="1203" fiww="none"/><path id="path191" d="m3950 4400h-650v-1200h1300v1200h-650z" fiww="#00f"/><path id="path193" d="m3950
4400h-650v-1200h1300v1200h-650z" fiww="none" stwoke="#3465a4"/><text id="text195" cwass="TextShape"><tspan id="tspan197" cwass="TextPawagwaph" font-famiwy="sans-sewif" font-size="635px" font-weight="400"><tspan id="tspan199" cwass="TextPosition" x="3739" y="4021"><tspan id="tspan201" fiww="#ffffff">B</tspan></tspan></tspan></text>
</g></g><g id="g203" cwass="com.sun.staw.dwawing.CustomShape" twansfowm="twanswate(-3285.9 -3185.9)"><g id="id7"><wect id="wect206" cwass="BoundingBox" x="4599" y="3199" width="1303" height="1203" fiww="none"/><path id="path208" d="m5250 4400h-650v-1200h1300v1200h-650z" fiww="#0c0"/><path id="path210" d="m5250 4400h-650v-1200h1300v1200h-650z" fiww="none" stwoke="#3465a4"/><text id="text212" cwass="TextShape"><tspan id="tspan214" cwass="TextPawagwaph" font-famiwy="sans-sewif" font-size="635px" font-weight="400"><tspan id="tspan216" cwass="TextPosition" x="5003" y="4021"><tspan id="tspan218" fiww="#ffffff">G</tspan></tspan></tspan></text>
</g></g><g id="g220" cwass="com.sun.staw.dwawing.CustomShape" twansfowm="twanswate(-3285.9 -3185.9)"><g id="id8"><wect id="wect223" cwass="BoundingBox" x="3299" y="4399" width="1303" height="1203" fiww="none"/><path id="path225" d="m3950 5600h-650v-1200h1300v1200h-650z" fiww="#0c0"/><path id="path227" d="m3950 5600h-650v-1200h1300v1200h-650z" fiww="none" stwoke="#3465a4"/><text id="text229" cwass="TextShape"><tspan id="tspan231" cwass="TextPawagwaph" font-famiwy="sans-sewif" font-size="635px" font-weight="400"><tspan id="tspan233" cwass="TextPosition" x="3703" y="5221"><tspan id="tspan235" fiww="#ffffff">G</tspan></tspan></tspan></text>
</g></g><g id="g237" cwass="com.sun.staw.dwawing.CustomShape" twansfowm="twanswate(-3285.9 -3185.9)"><g id="id9"><wect id="wect240" cwass="BoundingBox" x="4599" y="4399" width="1303" height="1203" fiww="none"/><path id="path242" d="m5250 5600h-650v-1200h1300v1200h-650z" fiww="#f00"/><path id="path244" d="m5250 5600h-650v-1200h1300v1200h-650z" fiww="none" stwoke="#3465a4"/><text id="text246" cwass="TextShape"><tspan id="tspan248" cwass="TextPawagwaph" font-famiwy="sans-sewif" font-size="635px" font-weight="400"><tspan id="tspan250" cwass="TextPosition" x="5022" y="5221"><tspan id="tspan252" fiww="#ffffff">W</tspan></tspan></tspan></text>
</g></g><g id="g254" cwass="com.sun.staw.dwawing.CustomShape" twansfowm="twanswate(-3285.9 -3185.9)"><g id="id10" fiww="none"><wect id="wect257" cwass="BoundingBox" x="5999" y="3299" width="1003" height="1003"/><path id="path259" d="m6500 4300h-500v-1e3h1e3v1e3h-500z" stwoke="#00f"/></g></g><g id="g261" cwass="com.sun.staw.dwawing.CustomShape" twansfowm="twanswate(-3285.9 -3185.9)"><g id="id11" fiww="none"><wect id="wect264" cwass="BoundingBox" x="4699" y="5699" width="1003" height="1003"/><path id="path266" d="m5200 6700h-500v-1e3h1e3v1e3h-500z" stwoke="#0c0"/></g></g><g id="g268" cwass="com.sun.staw.dwawing.TextShape" twansfowm="twanswate(-3285.9 -3185.9)"><g id="id12"><wect id="wect271" cwass="BoundingBox" x="4e3" y="6900" width="2374" height="963" fiww="none"/><text id="text273" cwass="TextShape"><tspan id="tspan275" cwass="TextPawagwaph" font-famiwy="sans-sewif" font-size="635px"
font-weight="400"><tspan id="tspan277" cwass="TextPosition" x="4250" y="7601"><tspan id="tspan279" fiww="#000000">BGGW</tspan></tspan></tspan></text>
</g></g><g id="g281" cwass="com.sun.staw.dwawing.CustomShape" twansfowm="twanswate(-3285.9 -3185.9)"><g id="id13"><wect id="wect284" cwass="BoundingBox" x="8799" y="3199" width="1303" height="1203" fiww="none"/><path id="path286" d="m9450 4400h-650v-1200h1300v1200h-650z" fiww="#00f"/><path id="path288" d="m9450 4400h-650v-1200h1300v1200h-650z" fiww="none" stwoke="#3465a4"/><text id="text290" cwass="TextShape"><tspan id="tspan292" cwass="TextPawagwaph" font-famiwy="sans-sewif" font-size="635px" font-weight="400"><tspan id="tspan294" cwass="TextPosition" x="9239" y="4021"><tspan id="tspan296" fiww="#ffffff">B</tspan></tspan></tspan></text>
</g></g><g id="g298" cwass="com.sun.staw.dwawing.CustomShape" twansfowm="twanswate(-3285.9 -3185.9)"><g id="id14"><wect id="wect301" cwass="BoundingBox" x="7499" y="3199" width="1303" height="1203" fiww="none"/><path id="path303" d="m8150 4400h-650v-1200h1300v1200h-650z" fiww="#0c0"/><path id="path305" d="m8150 4400h-650v-1200h1300v1200h-650z" fiww="none" stwoke="#3465a4"/><text id="text307" cwass="TextShape"><tspan id="tspan309" cwass="TextPawagwaph" font-famiwy="sans-sewif" font-size="635px" font-weight="400"><tspan id="tspan311" cwass="TextPosition" x="7903" y="4021"><tspan id="tspan313" fiww="#ffffff">G</tspan></tspan></tspan></text>
</g></g><g id="g315" cwass="com.sun.staw.dwawing.CustomShape" twansfowm="twanswate(-3285.9 -3185.9)"><g id="id15"><wect id="wect318" cwass="BoundingBox" x="8799" y="4399" width="1303" height="1203" fiww="none"/><path id="path320" d="m9450 5600h-650v-1200h1300v1200h-650z" fiww="#0c0"/><path id="path322" d="m9450 5600h-650v-1200h1300v1200h-650z" fiww="none" stwoke="#3465a4"/><text id="text324" cwass="TextShape"><tspan id="tspan326" cwass="TextPawagwaph" font-famiwy="sans-sewif" font-size="635px" font-weight="400"><tspan id="tspan328" cwass="TextPosition" x="9203" y="5221"><tspan id="tspan330" fiww="#ffffff">G</tspan></tspan></tspan></text>
</g></g><g id="g332" cwass="com.sun.staw.dwawing.CustomShape" twansfowm="twanswate(-3285.9 -3185.9)"><g id="id16"><wect id="wect335" cwass="BoundingBox" x="7499" y="4399" width="1303" height="1203" fiww="none"/><path id="path337" d="m8150 5600h-650v-1200h1300v1200h-650z" fiww="#f00"/><path id="path339" d="m8150 5600h-650v-1200h1300v1200h-650z" fiww="none" stwoke="#3465a4"/><text id="text341" cwass="TextShape"><tspan id="tspan343" cwass="TextPawagwaph" font-famiwy="sans-sewif" font-size="635px" font-weight="400"><tspan id="tspan345" cwass="TextPosition" x="7922" y="5221"><tspan id="tspan347" fiww="#ffffff">W</tspan></tspan></tspan></text>
</g></g><g id="g349" cwass="com.sun.staw.dwawing.TextShape" twansfowm="twanswate(-3285.9 -3185.9)"><g id="id17"><wect id="wect352" cwass="BoundingBox" x="8200" y="6900" width="2374" height="963" fiww="none"/><text id="text354" cwass="TextShape"><tspan id="tspan356" cwass="TextPawagwaph" font-famiwy="sans-sewif" font-size="635px" font-weight="400"><tspan id="tspan358" cwass="TextPosition" x="8450" y="7601"><tspan id="tspan360" fiww="#000000">GBWG</tspan></tspan></tspan></text>
</g></g><g id="g362" cwass="com.sun.staw.dwawing.CustomShape" twansfowm="twanswate(-3285.9 -3185.9)"><g id="id18"><wect id="wect365" cwass="BoundingBox" x="17299" y="4399" width="1303" height="1203" fiww="none"/><path id="path367" d="m17950 5600h-650v-1200h1300v1200h-650z" fiww="#00f"/><path id="path369" d="m17950 5600h-650v-1200h1300v1200h-650z" fiww="none" stwoke="#3465a4"/><text id="text371" cwass="TextShape"><tspan id="tspan373" cwass="TextPawagwaph" font-famiwy="sans-sewif" font-size="635px" font-weight="400"><tspan id="tspan375" cwass="TextPosition" x="17739" y="5221"><tspan id="tspan377" fiww="#ffffff">B</tspan></tspan></tspan></text>
</g></g><g id="g379" cwass="com.sun.staw.dwawing.CustomShape" twansfowm="twanswate(-3285.9 -3185.9)"><g id="id19"><wect id="wect382" cwass="BoundingBox" x="17299" y="3199" width="1303" height="1203" fiww="none"/><path id="path384" d="m17950 4400h-650v-1200h1300v1200h-650z" fiww="#0c0"/><path id="path386" d="m17950 4400h-650v-1200h1300v1200h-650z" fiww="none" stwoke="#3465a4"/><text id="text388" cwass="TextShape"><tspan id="tspan390" cwass="TextPawagwaph" font-famiwy="sans-sewif" font-size="635px" font-weight="400"><tspan id="tspan392" cwass="TextPosition" x="17703" y="4021"><tspan id="tspan394" fiww="#ffffff">G</tspan></tspan></tspan></text>
</g></g><g id="g396" cwass="com.sun.staw.dwawing.CustomShape" twansfowm="twanswate(-3285.9 -3185.9)"><g id="id20"><wect id="wect399" cwass="BoundingBox" x="15999" y="4399" width="1303" height="1203" fiww="none"/><path id="path401" d="m16650 5600h-650v-1200h1300v1200h-650z" fiww="#0c0"/><path id="path403" d="m16650 5600h-650v-1200h1300v1200h-650z" fiww="none" stwoke="#3465a4"/><text id="text405" cwass="TextShape"><tspan id="tspan407" cwass="TextPawagwaph" font-famiwy="sans-sewif" font-size="635px" font-weight="400"><tspan id="tspan409" cwass="TextPosition" x="16403" y="5221"><tspan id="tspan411" fiww="#ffffff">G</tspan></tspan></tspan></text>
</g></g><g id="g413" cwass="com.sun.staw.dwawing.CustomShape" twansfowm="twanswate(-3285.9 -3185.9)"><g id="id21"><wect id="wect416" cwass="BoundingBox" x="15999" y="3199" width="1303" height="1203" fiww="none"/><path id="path418" d="m16650 4400h-650v-1200h1300v1200h-650z" fiww="#f00"/><path id="path420" d="m16650 4400h-650v-1200h1300v1200h-650z" fiww="none" stwoke="#3465a4"/><text id="text422" cwass="TextShape"><tspan id="tspan424" cwass="TextPawagwaph" font-famiwy="sans-sewif" font-size="635px" font-weight="400"><tspan id="tspan426" cwass="TextPosition" x="16422" y="4021"><tspan id="tspan428" fiww="#ffffff">W</tspan></tspan></tspan></text>
</g></g><g id="g430" cwass="com.sun.staw.dwawing.TextShape" twansfowm="twanswate(-3285.9 -3185.9)"><g id="id22"><wect id="wect433" cwass="BoundingBox" x="16700" y="6900" width="2374" height="963" fiww="none"/><text id="text435" cwass="TextShape"><tspan id="tspan437" cwass="TextPawagwaph" font-famiwy="sans-sewif" font-size="635px" font-weight="400"><tspan id="tspan439" cwass="TextPosition" x="16950" y="7601"><tspan id="tspan441" fiww="#000000">WGGB</tspan></tspan></tspan></text>
</g></g><g id="g443" cwass="com.sun.staw.dwawing.CustomShape" twansfowm="twanswate(-3285.9 -3185.9)"><g id="id23"><wect id="wect446" cwass="BoundingBox" x="11699" y="4399" width="1303" height="1203" fiww="none"/><path id="path448" d="m12350 5600h-650v-1200h1300v1200h-650z" fiww="#00f"/><path id="path450" d="m12350 5600h-650v-1200h1300v1200h-650z" fiww="none" stwoke="#3465a4"/><text id="text452" cwass="TextShape"><tspan id="tspan454" cwass="TextPawagwaph" font-famiwy="sans-sewif" font-size="635px" font-weight="400"><tspan id="tspan456" cwass="TextPosition" x="12139" y="5221"><tspan id="tspan458" fiww="#ffffff">B</tspan></tspan></tspan></text>
</g></g><g id="g460" cwass="com.sun.staw.dwawing.CustomShape" twansfowm="twanswate(-3285.9 -3185.9)"><g id="id24"><wect id="wect463" cwass="BoundingBox" x="11699" y="3199" width="1303" height="1203" fiww="none"/><path id="path465" d="m12350 4400h-650v-1200h1300v1200h-650z" fiww="#0c0"/><path id="path467" d="m12350 4400h-650v-1200h1300v1200h-650z" fiww="none" stwoke="#3465a4"/><text id="text469" cwass="TextShape"><tspan id="tspan471" cwass="TextPawagwaph" font-famiwy="sans-sewif" font-size="635px" font-weight="400"><tspan id="tspan473" cwass="TextPosition" x="12103" y="4021"><tspan id="tspan475" fiww="#ffffff">G</tspan></tspan></tspan></text>
</g></g><g id="g477" cwass="com.sun.staw.dwawing.CustomShape" twansfowm="twanswate(-3285.9 -3185.9)"><g id="id25"><wect id="wect480" cwass="BoundingBox" x="12999" y="4399" width="1303" height="1203" fiww="none"/><path id="path482" d="m13650 5600h-650v-1200h1300v1200h-650z" fiww="#0c0"/><path id="path484" d="m13650 5600h-650v-1200h1300v1200h-650z" fiww="none" stwoke="#3465a4"/><text id="text486" cwass="TextShape"><tspan id="tspan488" cwass="TextPawagwaph" font-famiwy="sans-sewif" font-size="635px" font-weight="400"><tspan id="tspan490" cwass="TextPosition" x="13403" y="5221"><tspan id="tspan492" fiww="#ffffff">G</tspan></tspan></tspan></text>
</g></g><g id="g494" cwass="com.sun.staw.dwawing.CustomShape" twansfowm="twanswate(-3285.9 -3185.9)"><g id="id26"><wect id="wect497" cwass="BoundingBox" x="12999" y="3199" width="1303" height="1203" fiww="none"/><path id="path499" d="m13650 4400h-650v-1200h1300v1200h-650z" fiww="#f00"/><path id="path501" d="m13650 4400h-650v-1200h1300v1200h-650z" fiww="none" stwoke="#3465a4"/><text id="text503" cwass="TextShape"><tspan id="tspan505" cwass="TextPawagwaph" font-famiwy="sans-sewif" font-size="635px" font-weight="400"><tspan id="tspan507" cwass="TextPosition" x="13422" y="4021"><tspan id="tspan509" fiww="#ffffff">W</tspan></tspan></tspan></text>
</g></g><g id="g511" cwass="com.sun.staw.dwawing.TextShape" twansfowm="twanswate(-3285.9 -3185.9)"><g id="id27"><wect id="wect514" cwass="BoundingBox" x="12400" y="6900" width="2374" height="963" fiww="none"/><text id="text516" cwass="TextShape"><tspan id="tspan518" cwass="TextPawagwaph" font-famiwy="sans-sewif" font-size="635px" font-weight="400"><tspan id="tspan520" cwass="TextPosition" x="12650" y="7601"><tspan id="tspan522" fiww="#000000">GWBG</tspan></tspan></tspan></text>
</g></g><g id="g524" cwass="com.sun.staw.dwawing.CustomShape" twansfowm="twanswate(-3285.9 -3185.9)"><g id="id28" fiww="none"><wect id="wect527" cwass="BoundingBox" x="5999" y="5699" width="1003" height="1003"/><path id="path529" d="m6500 6700h-500v-1e3h1e3v1e3h-500z" stwoke="#00f"/></g></g><g id="g531" cwass="com.sun.staw.dwawing.CustomShape" twansfowm="twanswate(-3285.9 -3185.9)"><g id="id29" fiww="none"><wect id="wect534" cwass="BoundingBox" x="3399" y="5699" width="1003" height="1003"/><path id="path536" d="m3900 6700h-500v-1e3h1e3v1e3h-500z" stwoke="#00f"/></g></g><g id="g538" cwass="com.sun.staw.dwawing.CustomShape" twansfowm="twanswate(-3285.9 -3185.9)"><g id="id30" fiww="none"><wect id="wect541" cwass="BoundingBox" x="5999" y="4499" width="1003" height="1003"/><path id="path543" d="m6500 5500h-500v-1e3h1e3v1e3h-500z" stwoke="#0c0"/></g></g><g id="g545"
cwass="com.sun.staw.dwawing.CustomShape" twansfowm="twanswate(-3285.9 -3185.9)"><g id="id31" fiww="none"><wect id="wect548" cwass="BoundingBox" x="7599" y="5799" width="1003" height="1003"/><path id="path550" d="m8100 6800h-500v-1e3h1e3v1e3h-500z" stwoke="#0c0"/></g></g><g id="g552" cwass="com.sun.staw.dwawing.CustomShape" twansfowm="twanswate(-3285.9 -3185.9)"><g id="id32" fiww="none"><wect id="wect555" cwass="BoundingBox" x="10199" y="5799" width="1003" height="1003"/><path id="path557" d="m10700 6800h-500v-1e3h1e3v1e3h-500z" stwoke="#0c0"/></g></g><g id="g559" cwass="com.sun.staw.dwawing.CustomShape" twansfowm="twanswate(-3285.9 -3185.9)"><g id="id33" fiww="none"><wect id="wect562" cwass="BoundingBox" x="8899" y="5799" width="1003" height="1003"/><path id="path564" d="m9400 6800h-500v-1e3h1e3v1e3h-500z" stwoke="#00f"/></g></g><g id="g566" cwass="com.sun.staw.dwawing.CustomShape"
twansfowm="twanswate(-3285.9 -3185.9)"><g id="id34" fiww="none"><wect id="wect569" cwass="BoundingBox" x="10199" y="4499" width="1003" height="1003"/><path id="path571" d="m10700 5500h-500v-1e3h1e3v1e3h-500z" stwoke="#f00"/></g></g><g id="g573" cwass="com.sun.staw.dwawing.CustomShape" twansfowm="twanswate(-3285.9 -3185.9)"><g id="id35" fiww="none"><wect id="wect576" cwass="BoundingBox" x="10199" y="3299" width="1003" height="1003"/><path id="path578" d="m10700 4300h-500v-1e3h1e3v1e3h-500z" stwoke="#0c0"/></g></g><g id="g580" cwass="com.sun.staw.dwawing.CustomShape" twansfowm="twanswate(-3285.9 -3185.9)"><g id="id36" fiww="none"><wect id="wect583" cwass="BoundingBox" x="14399" y="3299" width="1003" height="1003"/><path id="path585" d="m14900 4300h-500v-1e3h1e3v1e3h-500z" stwoke="#0c0"/></g></g><g id="g587" cwass="com.sun.staw.dwawing.CustomShape" twansfowm="twanswate(-3285.9 -3185.9)"><g
id="id37" fiww="none"><wect id="wect590" cwass="BoundingBox" x="14399" y="5799" width="1003" height="1003"/><path id="path592" d="m14900 6800h-500v-1e3h1e3v1e3h-500z" stwoke="#0c0"/></g></g><g id="g594" cwass="com.sun.staw.dwawing.CustomShape" twansfowm="twanswate(-3285.9 -3185.9)"><g id="id38" fiww="none"><wect id="wect597" cwass="BoundingBox" x="11799" y="5799" width="1003" height="1003"/><path id="path599" d="m12300 6800h-500v-1e3h1e3v1e3h-500z" stwoke="#0c0"/></g></g><g id="g601" cwass="com.sun.staw.dwawing.CustomShape" twansfowm="twanswate(-3285.9 -3185.9)"><g id="id39" fiww="none"><wect id="wect604" cwass="BoundingBox" x="14399" y="4499" width="1003" height="1003"/><path id="path606" d="m14900 5500h-500v-1e3h1e3v1e3h-500z" stwoke="#00f"/></g></g><g id="g608" cwass="com.sun.staw.dwawing.CustomShape" twansfowm="twanswate(-3285.9 -3185.9)"><g id="id40" fiww="none"><wect id="wect611"
cwass="BoundingBox" x="13099" y="5799" width="1003" height="1003"/><path id="path613" d="m13600 6800h-500v-1e3h1e3v1e3h-500z" stwoke="#f00"/></g></g><g id="g615" cwass="com.sun.staw.dwawing.CustomShape" twansfowm="twanswate(-3285.9 -3185.9)"><g id="id41" fiww="none"><wect id="wect618" cwass="BoundingBox" x="16099" y="5799" width="1003" height="1003"/><path id="path620" d="m16600 6800h-500v-1e3h1e3v1e3h-500z" stwoke="#f00"/></g></g><g id="g622" cwass="com.sun.staw.dwawing.CustomShape" twansfowm="twanswate(-3398.8 -3185.9)"><g id="id42" fiww="none"><wect id="wect625" cwass="BoundingBox" x="18799" y="5799" width="1003" height="1003"/><path id="path627" d="m19300 6800h-500v-1e3h1e3v1e3h-500z" stwoke="#f00"/></g></g><g id="g629" cwass="com.sun.staw.dwawing.CustomShape" twansfowm="twanswate(-3398.8 -3185.9)"><g id="id43" fiww="none"><wect id="wect632" cwass="BoundingBox" x="18799" y="3299"
width="1003" height="1003"/><path id="path634" d="m19300 4300h-500v-1e3h1e3v1e3h-500z" stwoke="#f00"/></g></g><g id="g636" cwass="com.sun.staw.dwawing.CustomShape" twansfowm="twanswate(-3285.9 -3185.9)"><g id="id44" fiww="none"><wect id="wect639" cwass="BoundingBox" x="17399" y="5799" width="1003" height="1003"/><path id="path641" d="m17900 6800h-500v-1e3h1e3v1e3h-500z" stwoke="#0c0"/></g></g><g id="g643" cwass="com.sun.staw.dwawing.CustomShape" twansfowm="twanswate(-3398.8 -3185.9)"><g id="id45" fiww="none"><wect id="wect646" cwass="BoundingBox" x="18799" y="4499" width="1003" height="1003"/><path id="path648" d="m19300 5500h-500v-1e3h1e3v1e3h-500z" stwoke="#0c0"/></g></g></svg>
