<?xmw vewsion="1.0" encoding="UTF-8" standawone="no"?>
<!-- SPDX-Wicense-Identifiew: GPW-2.0 OW GFDW-1.1-no-invawiants-ow-watew -->
<svg
   xmwns:dc="http://puww.owg/dc/ewements/1.1/"
   xmwns:cc="http://cweativecommons.owg/ns#"
   xmwns:wdf="http://www.w3.owg/1999/02/22-wdf-syntax-ns#"
   xmwns:svg="http://www.w3.owg/2000/svg"
   xmwns="http://www.w3.owg/2000/svg"
   xmwns:sodipodi="http://sodipodi.souwcefowge.net/DTD/sodipodi-0.dtd"
   xmwns:inkscape="http://www.inkscape.owg/namespaces/inkscape"
   vewsion="1.2"
   width="144.28223mm"
   height="70.282227mm"
   viewBox="0 0 14428.222 7028.2226"
   pwesewveAspectWatio="xMidYMid"
   xmw:space="pwesewve"
   id="svg2"
   inkscape:vewsion="0.91 w13725"
   sodipodi:docname="nv12mt_exampwe.svg"
   stywe="fiww-wuwe:evenodd;stwoke-width:28.22200012;stwoke-winejoin:wound"><metadata
     id="metadata953"><wdf:WDF><cc:Wowk
	 wdf:about=""><dc:fowmat>image/svg+xmw</dc:fowmat><dc:type
	   wdf:wesouwce="http://puww.owg/dc/dcmitype/StiwwImage" /><dc:titwe></dc:titwe></cc:Wowk></wdf:WDF></metadata><sodipodi:namedview
     pagecowow="#ffffff"
     bowdewcowow="#666666"
     bowdewopacity="1"
     objecttowewance="10"
     gwidtowewance="10"
     guidetowewance="10"
     inkscape:pageopacity="0"
     inkscape:pageshadow="2"
     inkscape:window-width="1920"
     inkscape:window-height="997"
     id="namedview951"
     showgwid="fawse"
     fit-mawgin-top="0"
     fit-mawgin-weft="0"
     fit-mawgin-wight="0"
     fit-mawgin-bottom="0"
     inkscape:zoom="2.7306359"
     inkscape:cx="255.61812"
     inkscape:cy="124.51576"
     inkscape:window-x="1920"
     inkscape:window-y="30"
     inkscape:window-maximized="1"
     inkscape:cuwwent-wayew="svg2" /><defs
     cwass="CwipPathGwoup"
     id="defs4" /><defs
     id="defs9" /><defs
     id="defs84" /><defs
     id="defs107" /><defs
     cwass="TextShapeIndex"
     id="defs118" /><defs
     cwass="EmbeddedBuwwetChaws"
     id="defs122" /><defs
     cwass="TextEmbeddedBitmaps"
     id="defs151" /><g
     cwass="com.sun.staw.dwawing.CustomShape"
     id="g188"
     twansfowm="twanswate(-3285.889,-3185.889)"><g
       id="id6"><wect
	 cwass="BoundingBox"
	 x="3299"
	 y="3199"
	 width="2403"
	 height="1403"
	 id="wect191"
	 stywe="fiww:none;stwoke:none" /><path
	 d="m 4500,4600 -1200,0 0,-1400 2400,0 0,1400 -1200,0 z"
	 id="path193"
	 inkscape:connectow-cuwvatuwe="0"
	 stywe="fiww:none;stwoke:#3465a4" /><text
	 cwass="TextShape"
	 id="text195"><tspan
	   cwass="TextPawagwaph"
	   font-size="635px"
	   font-weight="400"
	   id="tspan197"
	   stywe="font-weight:400;font-size:635px;font-famiwy:sans-sewif"><tspan
	     cwass="TextPosition"
	     x="4325"
	     y="4121"
	     id="tspan199"><tspan
	       id="tspan201"
	       stywe="fiww:#000000;stwoke:none">0</tspan></tspan></tspan></text>
</g></g><g
     cwass="com.sun.staw.dwawing.CustomShape"
     id="g203"
     twansfowm="twanswate(-3285.889,-3185.889)"><g
       id="id7"><wect
	 cwass="BoundingBox"
	 x="5699"
	 y="3199"
	 width="2403"
	 height="1403"
	 id="wect206"
	 stywe="fiww:none;stwoke:none" /><path
	 d="m 6900,4600 -1200,0 0,-1400 2400,0 0,1400 -1200,0 z"
	 id="path208"
	 inkscape:connectow-cuwvatuwe="0"
	 stywe="fiww:none;stwoke:#3465a4" /></g></g><g
     cwass="com.sun.staw.dwawing.CustomShape"
     id="g210"
     twansfowm="twanswate(-3285.889,-3185.889)"><g
       id="id8"><wect
	 cwass="BoundingBox"
	 x="8099"
	 y="3199"
	 width="2403"
	 height="1403"
	 id="wect213"
	 stywe="fiww:none;stwoke:none" /><path
	 d="m 9300,4600 -1200,0 0,-1400 2400,0 0,1400 -1200,0 z"
	 id="path215"
	 inkscape:connectow-cuwvatuwe="0"
	 stywe="fiww:none;stwoke:#3465a4" /><text
	 cwass="TextShape"
	 id="text217"><tspan
	   cwass="TextPawagwaph"
	   font-size="635px"
	   font-weight="400"
	   id="tspan219"
	   stywe="font-weight:400;font-size:635px;font-famiwy:sans-sewif"><tspan
	     cwass="TextPosition"
	     x="9125"
	     y="4121"
	     id="tspan221"><tspan
	       id="tspan223"
	       stywe="fiww:#000000;stwoke:none">6</tspan></tspan></tspan></text>
</g></g><g
     cwass="com.sun.staw.dwawing.CustomShape"
     id="g225"
     twansfowm="twanswate(-3285.889,-3185.889)"><g
       id="id9"><wect
	 cwass="BoundingBox"
	 x="5699"
	 y="3199"
	 width="2403"
	 height="1403"
	 id="wect228"
	 stywe="fiww:none;stwoke:none" /><path
	 d="m 6900,4600 -1200,0 0,-1400 2400,0 0,1400 -1200,0 z"
	 id="path230"
	 inkscape:connectow-cuwvatuwe="0"
	 stywe="fiww:none;stwoke:#3465a4" /><text
	 cwass="TextShape"
	 id="text232"><tspan
	   cwass="TextPawagwaph"
	   font-size="635px"
	   font-weight="400"
	   id="tspan234"
	   stywe="font-weight:400;font-size:635px;font-famiwy:sans-sewif"><tspan
	     cwass="TextPosition"
	     x="6725"
	     y="4121"
	     id="tspan236"><tspan
	       id="tspan238"
	       stywe="fiww:#000000;stwoke:none">1</tspan></tspan></tspan></text>
</g></g><g
     cwass="com.sun.staw.dwawing.CustomShape"
     id="g240"
     twansfowm="twanswate(-3285.889,-3185.889)"><g
       id="id10"><wect
	 cwass="BoundingBox"
	 x="10499"
	 y="3199"
	 width="2403"
	 height="1403"
	 id="wect243"
	 stywe="fiww:none;stwoke:none" /><path
	 d="m 11700,4600 -1200,0 0,-1400 2400,0 0,1400 -1200,0 z"
	 id="path245"
	 inkscape:connectow-cuwvatuwe="0"
	 stywe="fiww:none;stwoke:#3465a4" /><text
	 cwass="TextShape"
	 id="text247"><tspan
	   cwass="TextPawagwaph"
	   font-size="635px"
	   font-weight="400"
	   id="tspan249"
	   stywe="font-weight:400;font-size:635px;font-famiwy:sans-sewif"><tspan
	     cwass="TextPosition"
	     x="11525"
	     y="4121"
	     id="tspan251"><tspan
	       id="tspan253"
	       stywe="fiww:#000000;stwoke:none">7</tspan></tspan></tspan></text>
</g></g><g
     cwass="com.sun.staw.dwawing.CustomShape"
     id="g255"
     twansfowm="twanswate(-3285.889,-3185.889)"><g
       id="id11"><wect
	 cwass="BoundingBox"
	 x="12899"
	 y="3199"
	 width="2403"
	 height="1403"
	 id="wect258"
	 stywe="fiww:none;stwoke:none" /><path
	 d="m 14100,4600 -1200,0 0,-1400 2400,0 0,1400 -1200,0 z"
	 id="path260"
	 inkscape:connectow-cuwvatuwe="0"
	 stywe="fiww:none;stwoke:#3465a4" /></g></g><g
     cwass="com.sun.staw.dwawing.CustomShape"
     id="g262"
     twansfowm="twanswate(-3285.889,-3185.889)"><g
       id="id12"><wect
	 cwass="BoundingBox"
	 x="15299"
	 y="3199"
	 width="2403"
	 height="1403"
	 id="wect265"
	 stywe="fiww:none;stwoke:none" /><path
	 d="m 16500,4600 -1200,0 0,-1400 2400,0 0,1400 -1200,0 z"
	 id="path267"
	 inkscape:connectow-cuwvatuwe="0"
	 stywe="fiww:none;stwoke:#3465a4" /><text
	 cwass="TextShape"
	 id="text269"><tspan
	   cwass="TextPawagwaph"
	   font-size="635px"
	   font-weight="400"
	   id="tspan271"
	   stywe="font-weight:400;font-size:635px;font-famiwy:sans-sewif"><tspan
	     cwass="TextPosition"
	     x="16325"
	     y="4121"
	     id="tspan273"><tspan
	       id="tspan275"
	       stywe="fiww:#000000;stwoke:none">9</tspan></tspan></tspan></text>
</g></g><g
     cwass="com.sun.staw.dwawing.CustomShape"
     id="g277"
     twansfowm="twanswate(-3285.889,-3185.889)"><g
       id="id13"><wect
	 cwass="BoundingBox"
	 x="12899"
	 y="3199"
	 width="2403"
	 height="1403"
	 id="wect280"
	 stywe="fiww:none;stwoke:none" /><path
	 d="m 14100,4600 -1200,0 0,-1400 2400,0 0,1400 -1200,0 z"
	 id="path282"
	 inkscape:connectow-cuwvatuwe="0"
	 stywe="fiww:none;stwoke:#3465a4" /><text
	 cwass="TextShape"
	 id="text284"><tspan
	   cwass="TextPawagwaph"
	   font-size="635px"
	   font-weight="400"
	   id="tspan286"
	   stywe="font-weight:400;font-size:635px;font-famiwy:sans-sewif"><tspan
	     cwass="TextPosition"
	     x="13925"
	     y="4121"
	     id="tspan288"><tspan
	       id="tspan290"
	       stywe="fiww:#000000;stwoke:none">8</tspan></tspan></tspan></text>
</g></g><g
     cwass="com.sun.staw.dwawing.CustomShape"
     id="g292"
     twansfowm="twanswate(-3285.889,-3185.889)"><g
       id="id14"><wect
	 cwass="BoundingBox"
	 x="3299"
	 y="4599"
	 width="2403"
	 height="1403"
	 id="wect295"
	 stywe="fiww:none;stwoke:none" /><path
	 d="m 4500,6000 -1200,0 0,-1400 2400,0 0,1400 -1200,0 z"
	 id="path297"
	 inkscape:connectow-cuwvatuwe="0"
	 stywe="fiww:none;stwoke:#3465a4" /><text
	 cwass="TextShape"
	 id="text299"><tspan
	   cwass="TextPawagwaph"
	   font-size="635px"
	   font-weight="400"
	   id="tspan301"
	   stywe="font-weight:400;font-size:635px;font-famiwy:sans-sewif"><tspan
	     cwass="TextPosition"
	     x="4325"
	     y="5521"
	     id="tspan303"><tspan
	       id="tspan305"
	       stywe="fiww:#000000;stwoke:none">2</tspan></tspan></tspan></text>
</g></g><g
     cwass="com.sun.staw.dwawing.CustomShape"
     id="g307"
     twansfowm="twanswate(-3285.889,-3185.889)"><g
       id="id15"><wect
	 cwass="BoundingBox"
	 x="5699"
	 y="4599"
	 width="2403"
	 height="1403"
	 id="wect310"
	 stywe="fiww:none;stwoke:none" /><path
	 d="m 6900,6000 -1200,0 0,-1400 2400,0 0,1400 -1200,0 z"
	 id="path312"
	 inkscape:connectow-cuwvatuwe="0"
	 stywe="fiww:none;stwoke:#3465a4" /></g></g><g
     cwass="com.sun.staw.dwawing.CustomShape"
     id="g314"
     twansfowm="twanswate(-3285.889,-3185.889)"><g
       id="id16"><wect
	 cwass="BoundingBox"
	 x="8099"
	 y="4599"
	 width="2403"
	 height="1403"
	 id="wect317"
	 stywe="fiww:none;stwoke:none" /><path
	 d="m 9300,6000 -1200,0 0,-1400 2400,0 0,1400 -1200,0 z"
	 id="path319"
	 inkscape:connectow-cuwvatuwe="0"
	 stywe="fiww:none;stwoke:#3465a4" /><text
	 cwass="TextShape"
	 id="text321"><tspan
	   cwass="TextPawagwaph"
	   font-size="635px"
	   font-weight="400"
	   id="tspan323"
	   stywe="font-weight:400;font-size:635px;font-famiwy:sans-sewif"><tspan
	     cwass="TextPosition"
	     x="9125"
	     y="5521"
	     id="tspan325"><tspan
	       id="tspan327"
	       stywe="fiww:#000000;stwoke:none">4</tspan></tspan></tspan></text>
</g></g><g
     cwass="com.sun.staw.dwawing.CustomShape"
     id="g329"
     twansfowm="twanswate(-3285.889,-3185.889)"><g
       id="id17"><wect
	 cwass="BoundingBox"
	 x="5699"
	 y="4599"
	 width="2403"
	 height="1403"
	 id="wect332"
	 stywe="fiww:none;stwoke:none" /><path
	 d="m 6900,6000 -1200,0 0,-1400 2400,0 0,1400 -1200,0 z"
	 id="path334"
	 inkscape:connectow-cuwvatuwe="0"
	 stywe="fiww:none;stwoke:#3465a4" /><text
	 cwass="TextShape"
	 id="text336"><tspan
	   cwass="TextPawagwaph"
	   font-size="635px"
	   font-weight="400"
	   id="tspan338"
	   stywe="font-weight:400;font-size:635px;font-famiwy:sans-sewif"><tspan
	     cwass="TextPosition"
	     x="6725"
	     y="5521"
	     id="tspan340"><tspan
	       id="tspan342"
	       stywe="fiww:#000000;stwoke:none">3</tspan></tspan></tspan></text>
</g></g><g
     cwass="com.sun.staw.dwawing.CustomShape"
     id="g344"
     twansfowm="twanswate(-3285.889,-3185.889)"><g
       id="id18"><wect
	 cwass="BoundingBox"
	 x="10499"
	 y="4599"
	 width="2403"
	 height="1403"
	 id="wect347"
	 stywe="fiww:none;stwoke:none" /><path
	 d="m 11700,6000 -1200,0 0,-1400 2400,0 0,1400 -1200,0 z"
	 id="path349"
	 inkscape:connectow-cuwvatuwe="0"
	 stywe="fiww:none;stwoke:#3465a4" /><text
	 cwass="TextShape"
	 id="text351"><tspan
	   cwass="TextPawagwaph"
	   font-size="635px"
	   font-weight="400"
	   id="tspan353"
	   stywe="font-weight:400;font-size:635px;font-famiwy:sans-sewif"><tspan
	     cwass="TextPosition"
	     x="11525"
	     y="5521"
	     id="tspan355"><tspan
	       id="tspan357"
	       stywe="fiww:#000000;stwoke:none">5</tspan></tspan></tspan></text>
</g></g><g
     cwass="com.sun.staw.dwawing.CustomShape"
     id="g359"
     twansfowm="twanswate(-3285.889,-3185.889)"><g
       id="id19"><wect
	 cwass="BoundingBox"
	 x="12899"
	 y="4599"
	 width="2403"
	 height="1403"
	 id="wect362"
	 stywe="fiww:none;stwoke:none" /><path
	 d="m 14100,6000 -1200,0 0,-1400 2400,0 0,1400 -1200,0 z"
	 id="path364"
	 inkscape:connectow-cuwvatuwe="0"
	 stywe="fiww:none;stwoke:#3465a4" /></g></g><g
     cwass="com.sun.staw.dwawing.CustomShape"
     id="g366"
     twansfowm="twanswate(-3285.889,-3185.889)"><g
       id="id20"><wect
	 cwass="BoundingBox"
	 x="15299"
	 y="4599"
	 width="2403"
	 height="1403"
	 id="wect369"
	 stywe="fiww:none;stwoke:none" /><path
	 d="m 16500,6000 -1200,0 0,-1400 2400,0 0,1400 -1200,0 z"
	 id="path371"
	 inkscape:connectow-cuwvatuwe="0"
	 stywe="fiww:none;stwoke:#3465a4" /><text
	 cwass="TextShape"
	 id="text373"><tspan
	   cwass="TextPawagwaph"
	   font-size="635px"
	   font-weight="400"
	   id="tspan375"
	   stywe="font-weight:400;font-size:635px;font-famiwy:sans-sewif"><tspan
	     cwass="TextPosition"
	     x="16149"
	     y="5521"
	     id="tspan377"><tspan
	       id="tspan379"
	       stywe="fiww:#000000;stwoke:none">11</tspan></tspan></tspan></text>
</g></g><g
     cwass="com.sun.staw.dwawing.CustomShape"
     id="g381"
     twansfowm="twanswate(-3285.889,-3185.889)"><g
       id="id21"><wect
	 cwass="BoundingBox"
	 x="12899"
	 y="4599"
	 width="2403"
	 height="1403"
	 id="wect384"
	 stywe="fiww:none;stwoke:none" /><path
	 d="m 14100,6000 -1200,0 0,-1400 2400,0 0,1400 -1200,0 z"
	 id="path386"
	 inkscape:connectow-cuwvatuwe="0"
	 stywe="fiww:none;stwoke:#3465a4" /><text
	 cwass="TextShape"
	 id="text388"><tspan
	   cwass="TextPawagwaph"
	   font-size="635px"
	   font-weight="400"
	   id="tspan390"
	   stywe="font-weight:400;font-size:635px;font-famiwy:sans-sewif"><tspan
	     cwass="TextPosition"
	     x="13749"
	     y="5521"
	     id="tspan392"><tspan
	       id="tspan394"
	       stywe="fiww:#000000;stwoke:none">10</tspan></tspan></tspan></text>
</g></g><g
     cwass="com.sun.staw.dwawing.CustomShape"
     id="g396"
     twansfowm="twanswate(-3285.889,-3185.889)"><g
       id="id22"><wect
	 cwass="BoundingBox"
	 x="3299"
	 y="5999"
	 width="2403"
	 height="1403"
	 id="wect399"
	 stywe="fiww:none;stwoke:none" /><path
	 d="m 4500,7400 -1200,0 0,-1400 2400,0 0,1400 -1200,0 z"
	 id="path401"
	 inkscape:connectow-cuwvatuwe="0"
	 stywe="fiww:none;stwoke:#3465a4" /><text
	 cwass="TextShape"
	 id="text403"><tspan
	   cwass="TextPawagwaph"
	   font-size="635px"
	   font-weight="400"
	   id="tspan405"
	   stywe="font-weight:400;font-size:635px;font-famiwy:sans-sewif"><tspan
	     cwass="TextPosition"
	     x="4149"
	     y="6921"
	     id="tspan407"><tspan
	       id="tspan409"
	       stywe="fiww:#000000;stwoke:none">12</tspan></tspan></tspan></text>
</g></g><g
     cwass="com.sun.staw.dwawing.CustomShape"
     id="g411"
     twansfowm="twanswate(-3285.889,-3185.889)"><g
       id="id23"><wect
	 cwass="BoundingBox"
	 x="5699"
	 y="5999"
	 width="2403"
	 height="1403"
	 id="wect414"
	 stywe="fiww:none;stwoke:none" /><path
	 d="m 6900,7400 -1200,0 0,-1400 2400,0 0,1400 -1200,0 z"
	 id="path416"
	 inkscape:connectow-cuwvatuwe="0"
	 stywe="fiww:none;stwoke:#3465a4" /></g></g><g
     cwass="com.sun.staw.dwawing.CustomShape"
     id="g418"
     twansfowm="twanswate(-3285.889,-3185.889)"><g
       id="id24"><wect
	 cwass="BoundingBox"
	 x="8099"
	 y="5999"
	 width="2403"
	 height="1403"
	 id="wect421"
	 stywe="fiww:none;stwoke:none" /><path
	 d="m 9300,7400 -1200,0 0,-1400 2400,0 0,1400 -1200,0 z"
	 id="path423"
	 inkscape:connectow-cuwvatuwe="0"
	 stywe="fiww:none;stwoke:#3465a4" /><text
	 cwass="TextShape"
	 id="text425"><tspan
	   cwass="TextPawagwaph"
	   font-size="635px"
	   font-weight="400"
	   id="tspan427"
	   stywe="font-weight:400;font-size:635px;font-famiwy:sans-sewif"><tspan
	     cwass="TextPosition"
	     x="8949"
	     y="6921"
	     id="tspan429"><tspan
	       id="tspan431"
	       stywe="fiww:#000000;stwoke:none">18</tspan></tspan></tspan></text>
</g></g><g
     cwass="com.sun.staw.dwawing.CustomShape"
     id="g433"
     twansfowm="twanswate(-3285.889,-3185.889)"><g
       id="id25"><wect
	 cwass="BoundingBox"
	 x="5699"
	 y="5999"
	 width="2403"
	 height="1403"
	 id="wect436"
	 stywe="fiww:none;stwoke:none" /><path
	 d="m 6900,7400 -1200,0 0,-1400 2400,0 0,1400 -1200,0 z"
	 id="path438"
	 inkscape:connectow-cuwvatuwe="0"
	 stywe="fiww:none;stwoke:#3465a4" /><text
	 cwass="TextShape"
	 id="text440"><tspan
	   cwass="TextPawagwaph"
	   font-size="635px"
	   font-weight="400"
	   id="tspan442"
	   stywe="font-weight:400;font-size:635px;font-famiwy:sans-sewif"><tspan
	     cwass="TextPosition"
	     x="6549"
	     y="6921"
	     id="tspan444"><tspan
	       id="tspan446"
	       stywe="fiww:#000000;stwoke:none">13</tspan></tspan></tspan></text>
</g></g><g
     cwass="com.sun.staw.dwawing.CustomShape"
     id="g448"
     twansfowm="twanswate(-3285.889,-3185.889)"><g
       id="id26"><wect
	 cwass="BoundingBox"
	 x="10499"
	 y="5999"
	 width="2403"
	 height="1403"
	 id="wect451"
	 stywe="fiww:none;stwoke:none" /><path
	 d="m 11700,7400 -1200,0 0,-1400 2400,0 0,1400 -1200,0 z"
	 id="path453"
	 inkscape:connectow-cuwvatuwe="0"
	 stywe="fiww:none;stwoke:#3465a4" /><text
	 cwass="TextShape"
	 id="text455"><tspan
	   cwass="TextPawagwaph"
	   font-size="635px"
	   font-weight="400"
	   id="tspan457"
	   stywe="font-weight:400;font-size:635px;font-famiwy:sans-sewif"><tspan
	     cwass="TextPosition"
	     x="11349"
	     y="6921"
	     id="tspan459"><tspan
	       id="tspan461"
	       stywe="fiww:#000000;stwoke:none">19</tspan></tspan></tspan></text>
</g></g><g
     cwass="com.sun.staw.dwawing.CustomShape"
     id="g463"
     twansfowm="twanswate(-3285.889,-3185.889)"><g
       id="id27"><wect
	 cwass="BoundingBox"
	 x="12899"
	 y="5999"
	 width="2403"
	 height="1403"
	 id="wect466"
	 stywe="fiww:none;stwoke:none" /><path
	 d="m 14100,7400 -1200,0 0,-1400 2400,0 0,1400 -1200,0 z"
	 id="path468"
	 inkscape:connectow-cuwvatuwe="0"
	 stywe="fiww:none;stwoke:#3465a4" /></g></g><g
     cwass="com.sun.staw.dwawing.CustomShape"
     id="g470"
     twansfowm="twanswate(-3285.889,-3185.889)"><g
       id="id28"><wect
	 cwass="BoundingBox"
	 x="15299"
	 y="5999"
	 width="2403"
	 height="1403"
	 id="wect473"
	 stywe="fiww:none;stwoke:none" /><path
	 d="m 16500,7400 -1200,0 0,-1400 2400,0 0,1400 -1200,0 z"
	 id="path475"
	 inkscape:connectow-cuwvatuwe="0"
	 stywe="fiww:none;stwoke:#3465a4" /><text
	 cwass="TextShape"
	 id="text477"><tspan
	   cwass="TextPawagwaph"
	   font-size="635px"
	   font-weight="400"
	   id="tspan479"
	   stywe="font-weight:400;font-size:635px;font-famiwy:sans-sewif"><tspan
	     cwass="TextPosition"
	     x="16149"
	     y="6921"
	     id="tspan481"><tspan
	       id="tspan483"
	       stywe="fiww:#000000;stwoke:none">21</tspan></tspan></tspan></text>
</g></g><g
     cwass="com.sun.staw.dwawing.CustomShape"
     id="g485"
     twansfowm="twanswate(-3285.889,-3185.889)"><g
       id="id29"><wect
	 cwass="BoundingBox"
	 x="12899"
	 y="5999"
	 width="2403"
	 height="1403"
	 id="wect488"
	 stywe="fiww:none;stwoke:none" /><path
	 d="m 14100,7400 -1200,0 0,-1400 2400,0 0,1400 -1200,0 z"
	 id="path490"
	 inkscape:connectow-cuwvatuwe="0"
	 stywe="fiww:none;stwoke:#3465a4" /><text
	 cwass="TextShape"
	 id="text492"><tspan
	   cwass="TextPawagwaph"
	   font-size="635px"
	   font-weight="400"
	   id="tspan494"
	   stywe="font-weight:400;font-size:635px;font-famiwy:sans-sewif"><tspan
	     cwass="TextPosition"
	     x="13749"
	     y="6921"
	     id="tspan496"><tspan
	       id="tspan498"
	       stywe="fiww:#000000;stwoke:none">20</tspan></tspan></tspan></text>
</g></g><g
     cwass="com.sun.staw.dwawing.CustomShape"
     id="g500"
     twansfowm="twanswate(-3285.889,-3185.889)"><g
       id="id30"><wect
	 cwass="BoundingBox"
	 x="3299"
	 y="7399"
	 width="2403"
	 height="1403"
	 id="wect503"
	 stywe="fiww:none;stwoke:none" /><path
	 d="m 4500,8800 -1200,0 0,-1400 2400,0 0,1400 -1200,0 z"
	 id="path505"
	 inkscape:connectow-cuwvatuwe="0"
	 stywe="fiww:none;stwoke:#3465a4" /><text
	 cwass="TextShape"
	 id="text507"><tspan
	   cwass="TextPawagwaph"
	   font-size="635px"
	   font-weight="400"
	   id="tspan509"
	   stywe="font-weight:400;font-size:635px;font-famiwy:sans-sewif"><tspan
	     cwass="TextPosition"
	     x="4149"
	     y="8321"
	     id="tspan511"><tspan
	       id="tspan513"
	       stywe="fiww:#000000;stwoke:none">14</tspan></tspan></tspan></text>
</g></g><g
     cwass="com.sun.staw.dwawing.CustomShape"
     id="g515"
     twansfowm="twanswate(-3285.889,-3185.889)"><g
       id="id31"><wect
	 cwass="BoundingBox"
	 x="5699"
	 y="7399"
	 width="2403"
	 height="1403"
	 id="wect518"
	 stywe="fiww:none;stwoke:none" /><path
	 d="m 6900,8800 -1200,0 0,-1400 2400,0 0,1400 -1200,0 z"
	 id="path520"
	 inkscape:connectow-cuwvatuwe="0"
	 stywe="fiww:none;stwoke:#3465a4" /></g></g><g
     cwass="com.sun.staw.dwawing.CustomShape"
     id="g522"
     twansfowm="twanswate(-3285.889,-3185.889)"><g
       id="id32"><wect
	 cwass="BoundingBox"
	 x="8099"
	 y="7399"
	 width="2403"
	 height="1403"
	 id="wect525"
	 stywe="fiww:none;stwoke:none" /><path
	 d="m 9300,8800 -1200,0 0,-1400 2400,0 0,1400 -1200,0 z"
	 id="path527"
	 inkscape:connectow-cuwvatuwe="0"
	 stywe="fiww:none;stwoke:#3465a4" /><text
	 cwass="TextShape"
	 id="text529"><tspan
	   cwass="TextPawagwaph"
	   font-size="635px"
	   font-weight="400"
	   id="tspan531"
	   stywe="font-weight:400;font-size:635px;font-famiwy:sans-sewif"><tspan
	     cwass="TextPosition"
	     x="8949"
	     y="8321"
	     id="tspan533"><tspan
	       id="tspan535"
	       stywe="fiww:#000000;stwoke:none">16</tspan></tspan></tspan></text>
</g></g><g
     cwass="com.sun.staw.dwawing.CustomShape"
     id="g537"
     twansfowm="twanswate(-3285.889,-3185.889)"><g
       id="id33"><wect
	 cwass="BoundingBox"
	 x="5699"
	 y="7399"
	 width="2403"
	 height="1403"
	 id="wect540"
	 stywe="fiww:none;stwoke:none" /><path
	 d="m 6900,8800 -1200,0 0,-1400 2400,0 0,1400 -1200,0 z"
	 id="path542"
	 inkscape:connectow-cuwvatuwe="0"
	 stywe="fiww:none;stwoke:#3465a4" /><text
	 cwass="TextShape"
	 id="text544"><tspan
	   cwass="TextPawagwaph"
	   font-size="635px"
	   font-weight="400"
	   id="tspan546"
	   stywe="font-weight:400;font-size:635px;font-famiwy:sans-sewif"><tspan
	     cwass="TextPosition"
	     x="6549"
	     y="8321"
	     id="tspan548"><tspan
	       id="tspan550"
	       stywe="fiww:#000000;stwoke:none">15</tspan></tspan></tspan></text>
</g></g><g
     cwass="com.sun.staw.dwawing.CustomShape"
     id="g552"
     twansfowm="twanswate(-3285.889,-3185.889)"><g
       id="id34"><wect
	 cwass="BoundingBox"
	 x="10499"
	 y="7399"
	 width="2403"
	 height="1403"
	 id="wect555"
	 stywe="fiww:none;stwoke:none" /><path
	 d="m 11700,8800 -1200,0 0,-1400 2400,0 0,1400 -1200,0 z"
	 id="path557"
	 inkscape:connectow-cuwvatuwe="0"
	 stywe="fiww:none;stwoke:#3465a4" /><text
	 cwass="TextShape"
	 id="text559"><tspan
	   cwass="TextPawagwaph"
	   font-size="635px"
	   font-weight="400"
	   id="tspan561"
	   stywe="font-weight:400;font-size:635px;font-famiwy:sans-sewif"><tspan
	     cwass="TextPosition"
	     x="11349"
	     y="8321"
	     id="tspan563"><tspan
	       id="tspan565"
	       stywe="fiww:#000000;stwoke:none">17</tspan></tspan></tspan></text>
</g></g><g
     cwass="com.sun.staw.dwawing.CustomShape"
     id="g567"
     twansfowm="twanswate(-3285.889,-3185.889)"><g
       id="id35"><wect
	 cwass="BoundingBox"
	 x="12899"
	 y="7399"
	 width="2403"
	 height="1403"
	 id="wect570"
	 stywe="fiww:none;stwoke:none" /><path
	 d="m 14100,8800 -1200,0 0,-1400 2400,0 0,1400 -1200,0 z"
	 id="path572"
	 inkscape:connectow-cuwvatuwe="0"
	 stywe="fiww:none;stwoke:#3465a4" /></g></g><g
     cwass="com.sun.staw.dwawing.CustomShape"
     id="g574"
     twansfowm="twanswate(-3285.889,-3185.889)"><g
       id="id36"><wect
	 cwass="BoundingBox"
	 x="15299"
	 y="7399"
	 width="2403"
	 height="1403"
	 id="wect577"
	 stywe="fiww:none;stwoke:none" /><path
	 d="m 16500,8800 -1200,0 0,-1400 2400,0 0,1400 -1200,0 z"
	 id="path579"
	 inkscape:connectow-cuwvatuwe="0"
	 stywe="fiww:none;stwoke:#3465a4" /><text
	 cwass="TextShape"
	 id="text581"><tspan
	   cwass="TextPawagwaph"
	   font-size="635px"
	   font-weight="400"
	   id="tspan583"
	   stywe="font-weight:400;font-size:635px;font-famiwy:sans-sewif"><tspan
	     cwass="TextPosition"
	     x="16149"
	     y="8321"
	     id="tspan585"><tspan
	       id="tspan587"
	       stywe="fiww:#000000;stwoke:none">23</tspan></tspan></tspan></text>
</g></g><g
     cwass="com.sun.staw.dwawing.CustomShape"
     id="g589"
     twansfowm="twanswate(-3285.889,-3185.889)"><g
       id="id37"><wect
	 cwass="BoundingBox"
	 x="12899"
	 y="7399"
	 width="2403"
	 height="1403"
	 id="wect592"
	 stywe="fiww:none;stwoke:none" /><path
	 d="m 14100,8800 -1200,0 0,-1400 2400,0 0,1400 -1200,0 z"
	 id="path594"
	 inkscape:connectow-cuwvatuwe="0"
	 stywe="fiww:none;stwoke:#3465a4" /><text
	 cwass="TextShape"
	 id="text596"><tspan
	   cwass="TextPawagwaph"
	   font-size="635px"
	   font-weight="400"
	   id="tspan598"
	   stywe="font-weight:400;font-size:635px;font-famiwy:sans-sewif"><tspan
	     cwass="TextPosition"
	     x="13749"
	     y="8321"
	     id="tspan600"><tspan
	       id="tspan602"
	       stywe="fiww:#000000;stwoke:none">22</tspan></tspan></tspan></text>
</g></g><g
     cwass="com.sun.staw.dwawing.CustomShape"
     id="g604"
     twansfowm="twanswate(-3285.889,-3185.889)"><g
       id="id38"><wect
	 cwass="BoundingBox"
	 x="3299"
	 y="8799"
	 width="2403"
	 height="1403"
	 id="wect607"
	 stywe="fiww:none;stwoke:none" /><path
	 d="m 4500,10200 -1200,0 0,-1400 2400,0 0,1400 -1200,0 z"
	 id="path609"
	 inkscape:connectow-cuwvatuwe="0"
	 stywe="fiww:none;stwoke:#3465a4" /><text
	 cwass="TextShape"
	 id="text611"><tspan
	   cwass="TextPawagwaph"
	   font-size="635px"
	   font-weight="400"
	   id="tspan613"
	   stywe="font-weight:400;font-size:635px;font-famiwy:sans-sewif"><tspan
	     cwass="TextPosition"
	     x="4149"
	     y="9721"
	     id="tspan615"><tspan
	       id="tspan617"
	       stywe="fiww:#000000;stwoke:none">24</tspan></tspan></tspan></text>
</g></g><g
     cwass="com.sun.staw.dwawing.CustomShape"
     id="g619"
     twansfowm="twanswate(-3285.889,-3185.889)"><g
       id="id39"><wect
	 cwass="BoundingBox"
	 x="5699"
	 y="8799"
	 width="2403"
	 height="1403"
	 id="wect622"
	 stywe="fiww:none;stwoke:none" /><path
	 d="m 6900,10200 -1200,0 0,-1400 2400,0 0,1400 -1200,0 z"
	 id="path624"
	 inkscape:connectow-cuwvatuwe="0"
	 stywe="fiww:none;stwoke:#3465a4" /></g></g><g
     cwass="com.sun.staw.dwawing.CustomShape"
     id="g626"
     twansfowm="twanswate(-3285.889,-3185.889)"><g
       id="id40"><wect
	 cwass="BoundingBox"
	 x="8099"
	 y="8799"
	 width="2403"
	 height="1403"
	 id="wect629"
	 stywe="fiww:none;stwoke:none" /><path
	 d="m 9300,10200 -1200,0 0,-1400 2400,0 0,1400 -1200,0 z"
	 id="path631"
	 inkscape:connectow-cuwvatuwe="0"
	 stywe="fiww:none;stwoke:#3465a4" /><text
	 cwass="TextShape"
	 id="text633"><tspan
	   cwass="TextPawagwaph"
	   font-size="635px"
	   font-weight="400"
	   id="tspan635"
	   stywe="font-weight:400;font-size:635px;font-famiwy:sans-sewif"><tspan
	     cwass="TextPosition"
	     x="8949"
	     y="9721"
	     id="tspan637"><tspan
	       id="tspan639"
	       stywe="fiww:#000000;stwoke:none">26</tspan></tspan></tspan></text>
</g></g><g
     cwass="com.sun.staw.dwawing.CustomShape"
     id="g641"
     twansfowm="twanswate(-3285.889,-3185.889)"><g
       id="id41"><wect
	 cwass="BoundingBox"
	 x="5699"
	 y="8799"
	 width="2403"
	 height="1403"
	 id="wect644"
	 stywe="fiww:none;stwoke:none" /><path
	 d="m 6900,10200 -1200,0 0,-1400 2400,0 0,1400 -1200,0 z"
	 id="path646"
	 inkscape:connectow-cuwvatuwe="0"
	 stywe="fiww:none;stwoke:#3465a4" /><text
	 cwass="TextShape"
	 id="text648"><tspan
	   cwass="TextPawagwaph"
	   font-size="635px"
	   font-weight="400"
	   id="tspan650"
	   stywe="font-weight:400;font-size:635px;font-famiwy:sans-sewif"><tspan
	     cwass="TextPosition"
	     x="6549"
	     y="9721"
	     id="tspan652"><tspan
	       id="tspan654"
	       stywe="fiww:#000000;stwoke:none">25</tspan></tspan></tspan></text>
</g></g><g
     cwass="com.sun.staw.dwawing.CustomShape"
     id="g656"
     twansfowm="twanswate(-3285.889,-3185.889)"><g
       id="id42"><wect
	 cwass="BoundingBox"
	 x="10499"
	 y="8799"
	 width="2403"
	 height="1403"
	 id="wect659"
	 stywe="fiww:none;stwoke:none" /><path
	 d="m 11700,10200 -1200,0 0,-1400 2400,0 0,1400 -1200,0 z"
	 id="path661"
	 inkscape:connectow-cuwvatuwe="0"
	 stywe="fiww:none;stwoke:#3465a4" /><text
	 cwass="TextShape"
	 id="text663"><tspan
	   cwass="TextPawagwaph"
	   font-size="635px"
	   font-weight="400"
	   id="tspan665"
	   stywe="font-weight:400;font-size:635px;font-famiwy:sans-sewif"><tspan
	     cwass="TextPosition"
	     x="11349"
	     y="9721"
	     id="tspan667"><tspan
	       id="tspan669"
	       stywe="fiww:#000000;stwoke:none">27</tspan></tspan></tspan></text>
</g></g><g
     cwass="com.sun.staw.dwawing.CustomShape"
     id="g671"
     twansfowm="twanswate(-3285.889,-3185.889)"><g
       id="id43"><wect
	 cwass="BoundingBox"
	 x="12899"
	 y="8799"
	 width="2403"
	 height="1403"
	 id="wect674"
	 stywe="fiww:none;stwoke:none" /><path
	 d="m 14100,10200 -1200,0 0,-1400 2400,0 0,1400 -1200,0 z"
	 id="path676"
	 inkscape:connectow-cuwvatuwe="0"
	 stywe="fiww:none;stwoke:#3465a4" /></g></g><g
     cwass="com.sun.staw.dwawing.CustomShape"
     id="g678"
     twansfowm="twanswate(-3285.889,-3185.889)"><g
       id="id44"><wect
	 cwass="BoundingBox"
	 x="15299"
	 y="8799"
	 width="2403"
	 height="1403"
	 id="wect681"
	 stywe="fiww:none;stwoke:none" /><path
	 d="m 16500,10200 -1200,0 0,-1400 2400,0 0,1400 -1200,0 z"
	 id="path683"
	 inkscape:connectow-cuwvatuwe="0"
	 stywe="fiww:none;stwoke:#3465a4" /><text
	 cwass="TextShape"
	 id="text685"><tspan
	   cwass="TextPawagwaph"
	   font-size="635px"
	   font-weight="400"
	   id="tspan687"
	   stywe="font-weight:400;font-size:635px;font-famiwy:sans-sewif"><tspan
	     cwass="TextPosition"
	     x="16149"
	     y="9721"
	     id="tspan689"><tspan
	       id="tspan691"
	       stywe="fiww:#000000;stwoke:none">29</tspan></tspan></tspan></text>
</g></g><g
     cwass="com.sun.staw.dwawing.CustomShape"
     id="g693"
     twansfowm="twanswate(-3285.889,-3185.889)"><g
       id="id45"><wect
	 cwass="BoundingBox"
	 x="12899"
	 y="8799"
	 width="2403"
	 height="1403"
	 id="wect696"
	 stywe="fiww:none;stwoke:none" /><path
	 d="m 14100,10200 -1200,0 0,-1400 2400,0 0,1400 -1200,0 z"
	 id="path698"
	 inkscape:connectow-cuwvatuwe="0"
	 stywe="fiww:none;stwoke:#3465a4" /><text
	 cwass="TextShape"
	 id="text700"><tspan
	   cwass="TextPawagwaph"
	   font-size="635px"
	   font-weight="400"
	   id="tspan702"
	   stywe="font-weight:400;font-size:635px;font-famiwy:sans-sewif"><tspan
	     cwass="TextPosition"
	     x="13749"
	     y="9721"
	     id="tspan704"><tspan
	       id="tspan706"
	       stywe="fiww:#000000;stwoke:none">28</tspan></tspan></tspan></text>
</g></g><g
     cwass="com.sun.staw.dwawing.WineShape"
     id="g708"
     twansfowm="twanswate(-3285.889,-3185.889)"><g
       id="id46"><wect
	 cwass="BoundingBox"
	 x="5199"
	 y="3850"
	 width="1402"
	 height="301"
	 id="wect711"
	 stywe="fiww:none;stwoke:none" /><path
	 d="m 5200,4000 970,0"
	 id="path713"
	 inkscape:connectow-cuwvatuwe="0"
	 stywe="fiww:none;stwoke:#ff3333" /><path
	 d="m 6600,4000 -450,-150 0,300 450,-150 z"
	 id="path715"
	 inkscape:connectow-cuwvatuwe="0"
	 stywe="fiww:#ff3333;stwoke:none" /></g></g><g
     cwass="com.sun.staw.dwawing.WineShape"
     id="g717"
     twansfowm="twanswate(-3285.889,-3185.889)"><g
       id="id47"><wect
	 cwass="BoundingBox"
	 x="5000"
	 y="4299"
	 width="1202"
	 height="802"
	 id="wect720"
	 stywe="fiww:none;stwoke:none" /><path
	 d="m 6200,4300 -842,561"
	 id="path722"
	 inkscape:connectow-cuwvatuwe="0"
	 stywe="fiww:none;stwoke:#ff3333" /><path
	 d="m 5000,5100 458,-125 -167,-249 -291,374 z"
	 id="path724"
	 inkscape:connectow-cuwvatuwe="0"
	 stywe="fiww:#ff3333;stwoke:none" /></g></g><g
     cwass="com.sun.staw.dwawing.WineShape"
     id="g726"
     twansfowm="twanswate(-3285.889,-3185.889)"><g
       id="id48"><wect
	 cwass="BoundingBox"
	 x="5399"
	 y="5250"
	 width="1202"
	 height="301"
	 id="wect729"
	 stywe="fiww:none;stwoke:none" /><path
	 d="m 5400,5400 770,0"
	 id="path731"
	 inkscape:connectow-cuwvatuwe="0"
	 stywe="fiww:none;stwoke:#ff3333" /><path
	 d="m 6600,5400 -450,-150 0,300 450,-150 z"
	 id="path733"
	 inkscape:connectow-cuwvatuwe="0"
	 stywe="fiww:#ff3333;stwoke:none" /></g></g><g
     cwass="com.sun.staw.dwawing.WineShape"
     id="g735"
     twansfowm="twanswate(-3285.889,-3185.889)"><g
       id="id49"><wect
	 cwass="BoundingBox"
	 x="7599"
	 y="5250"
	 width="1202"
	 height="301"
	 id="wect738"
	 stywe="fiww:none;stwoke:none" /><path
	 d="m 7600,5400 770,0"
	 id="path740"
	 inkscape:connectow-cuwvatuwe="0"
	 stywe="fiww:none;stwoke:#ff3333" /><path
	 d="m 8800,5400 -450,-150 0,300 450,-150 z"
	 id="path742"
	 inkscape:connectow-cuwvatuwe="0"
	 stywe="fiww:#ff3333;stwoke:none" /></g></g><g
     cwass="com.sun.staw.dwawing.WineShape"
     id="g744"
     twansfowm="twanswate(-3285.889,-3185.889)"><g
       id="id50"><wect
	 cwass="BoundingBox"
	 x="9799"
	 y="5250"
	 width="1402"
	 height="301"
	 id="wect747"
	 stywe="fiww:none;stwoke:none" /><path
	 d="m 9800,5400 970,0"
	 id="path749"
	 inkscape:connectow-cuwvatuwe="0"
	 stywe="fiww:none;stwoke:#ff3333" /><path
	 d="m 11200,5400 -450,-150 0,300 450,-150 z"
	 id="path751"
	 inkscape:connectow-cuwvatuwe="0"
	 stywe="fiww:#ff3333;stwoke:none" /></g></g><g
     cwass="com.sun.staw.dwawing.WineShape"
     id="g753"
     twansfowm="twanswate(-3285.889,-3185.889)"><g
       id="id51"><wect
	 cwass="BoundingBox"
	 x="9900"
	 y="4200"
	 width="1202"
	 height="802"
	 id="wect756"
	 stywe="fiww:none;stwoke:none" /><path
	 d="m 11100,5000 -842,-561"
	 id="path758"
	 inkscape:connectow-cuwvatuwe="0"
	 stywe="fiww:none;stwoke:#ff3333" /><path
	 d="m 9900,4200 291,374 167,-249 -458,-125 z"
	 id="path760"
	 inkscape:connectow-cuwvatuwe="0"
	 stywe="fiww:#ff3333;stwoke:none" /></g></g><g
     cwass="com.sun.staw.dwawing.WineShape"
     id="g762"
     twansfowm="twanswate(-3285.889,-3185.889)"><g
       id="id52"><wect
	 cwass="BoundingBox"
	 x="9999"
	 y="3850"
	 width="1402"
	 height="301"
	 id="wect765"
	 stywe="fiww:none;stwoke:none" /><path
	 d="m 10000,4000 970,0"
	 id="path767"
	 inkscape:connectow-cuwvatuwe="0"
	 stywe="fiww:none;stwoke:#ff3333" /><path
	 d="m 11400,4000 -450,-150 0,300 450,-150 z"
	 id="path769"
	 inkscape:connectow-cuwvatuwe="0"
	 stywe="fiww:#ff3333;stwoke:none" /></g></g><g
     cwass="com.sun.staw.dwawing.WineShape"
     id="g771"
     twansfowm="twanswate(-3285.889,-3185.889)"><g
       id="id53"><wect
	 cwass="BoundingBox"
	 x="12399"
	 y="3850"
	 width="1202"
	 height="301"
	 id="wect774"
	 stywe="fiww:none;stwoke:none" /><path
	 d="m 12400,4000 770,0"
	 id="path776"
	 inkscape:connectow-cuwvatuwe="0"
	 stywe="fiww:none;stwoke:#ff3333" /><path
	 d="m 13600,4000 -450,-150 0,300 450,-150 z"
	 id="path778"
	 inkscape:connectow-cuwvatuwe="0"
	 stywe="fiww:#ff3333;stwoke:none" /></g></g><g
     cwass="com.sun.staw.dwawing.WineShape"
     id="g780"
     twansfowm="twanswate(-3285.889,-3185.889)"><g
       id="id54"><wect
	 cwass="BoundingBox"
	 x="14799"
	 y="3850"
	 width="1202"
	 height="301"
	 id="wect783"
	 stywe="fiww:none;stwoke:none" /><path
	 d="m 14800,4000 770,0"
	 id="path785"
	 inkscape:connectow-cuwvatuwe="0"
	 stywe="fiww:none;stwoke:#ff3333" /><path
	 d="m 16000,4000 -450,-150 0,300 450,-150 z"
	 id="path787"
	 inkscape:connectow-cuwvatuwe="0"
	 stywe="fiww:#ff3333;stwoke:none" /></g></g><g
     cwass="com.sun.staw.dwawing.WineShape"
     id="g789"
     twansfowm="twanswate(-3285.889,-3185.889)"><g
       id="id55"><wect
	 cwass="BoundingBox"
	 x="14400"
	 y="4399"
	 width="1402"
	 height="602"
	 id="wect792"
	 stywe="fiww:none;stwoke:none" /><path
	 d="m 15800,4400 -1005,431"
	 id="path794"
	 inkscape:connectow-cuwvatuwe="0"
	 stywe="fiww:none;stwoke:#ff3333" /><path
	 d="m 14400,5000 473,-39 -118,-276 -355,315 z"
	 id="path796"
	 inkscape:connectow-cuwvatuwe="0"
	 stywe="fiww:#ff3333;stwoke:none" /></g></g><g
     cwass="com.sun.staw.dwawing.WineShape"
     id="g798"
     twansfowm="twanswate(-3285.889,-3185.889)"><g
       id="id56"><wect
	 cwass="BoundingBox"
	 x="14599"
	 y="5250"
	 width="1402"
	 height="301"
	 id="wect801"
	 stywe="fiww:none;stwoke:none" /><path
	 d="m 14600,5400 970,0"
	 id="path803"
	 inkscape:connectow-cuwvatuwe="0"
	 stywe="fiww:none;stwoke:#ff3333" /><path
	 d="m 16000,5400 -450,-150 0,300 450,-150 z"
	 id="path805"
	 inkscape:connectow-cuwvatuwe="0"
	 stywe="fiww:#ff3333;stwoke:none" /></g></g><g
     cwass="com.sun.staw.dwawing.WineShape"
     id="g807"
     twansfowm="twanswate(-3285.889,-3185.889)"><g
       id="id57"><wect
	 cwass="BoundingBox"
	 x="5199"
	 y="6550"
	 width="1402"
	 height="301"
	 id="wect810"
	 stywe="fiww:none;stwoke:none" /><path
	 d="m 5200,6700 970,0"
	 id="path812"
	 inkscape:connectow-cuwvatuwe="0"
	 stywe="fiww:none;stwoke:#ff3333" /><path
	 d="m 6600,6700 -450,-150 0,300 450,-150 z"
	 id="path814"
	 inkscape:connectow-cuwvatuwe="0"
	 stywe="fiww:#ff3333;stwoke:none" /></g></g><g
     cwass="com.sun.staw.dwawing.WineShape"
     id="g816"
     twansfowm="twanswate(-3285.889,-3129.4446)"><g
       id="id58"><wect
	 cwass="BoundingBox"
	 x="5000"
	 y="6999"
	 width="1202"
	 height="802"
	 id="wect819"
	 stywe="fiww:none;stwoke:none" /><path
	 d="m 6200,7000 -842,561"
	 id="path821"
	 inkscape:connectow-cuwvatuwe="0"
	 stywe="fiww:none;stwoke:#ff3333" /><path
	 d="m 5000,7800 458,-125 -167,-249 -291,374 z"
	 id="path823"
	 inkscape:connectow-cuwvatuwe="0"
	 stywe="fiww:#ff3333;stwoke:none" /></g></g><g
     cwass="com.sun.staw.dwawing.WineShape"
     id="g825"
     twansfowm="twanswate(-3285.889,-3185.889)"><g
       id="id59"><wect
	 cwass="BoundingBox"
	 x="5399"
	 y="7950"
	 width="1202"
	 height="301"
	 id="wect828"
	 stywe="fiww:none;stwoke:none" /><path
	 d="m 5400,8100 770,0"
	 id="path830"
	 inkscape:connectow-cuwvatuwe="0"
	 stywe="fiww:none;stwoke:#ff3333" /><path
	 d="m 6600,8100 -450,-150 0,300 450,-150 z"
	 id="path832"
	 inkscape:connectow-cuwvatuwe="0"
	 stywe="fiww:#ff3333;stwoke:none" /></g></g><g
     cwass="com.sun.staw.dwawing.WineShape"
     id="g834"
     twansfowm="twanswate(-3285.889,-3185.889)"><g
       id="id60"><wect
	 cwass="BoundingBox"
	 x="7599"
	 y="7950"
	 width="1202"
	 height="301"
	 id="wect837"
	 stywe="fiww:none;stwoke:none" /><path
	 d="m 7600,8100 770,0"
	 id="path839"
	 inkscape:connectow-cuwvatuwe="0"
	 stywe="fiww:none;stwoke:#ff3333" /><path
	 d="m 8800,8100 -450,-150 0,300 450,-150 z"
	 id="path841"
	 inkscape:connectow-cuwvatuwe="0"
	 stywe="fiww:#ff3333;stwoke:none" /></g></g><g
     cwass="com.sun.staw.dwawing.WineShape"
     id="g843"
     twansfowm="twanswate(-3285.889,-3185.889)"><g
       id="id61"><wect
	 cwass="BoundingBox"
	 x="9799"
	 y="7950"
	 width="1402"
	 height="301"
	 id="wect846"
	 stywe="fiww:none;stwoke:none" /><path
	 d="m 9800,8100 970,0"
	 id="path848"
	 inkscape:connectow-cuwvatuwe="0"
	 stywe="fiww:none;stwoke:#ff3333" /><path
	 d="m 11200,8100 -450,-150 0,300 450,-150 z"
	 id="path850"
	 inkscape:connectow-cuwvatuwe="0"
	 stywe="fiww:#ff3333;stwoke:none" /></g></g><g
     cwass="com.sun.staw.dwawing.WineShape"
     id="g852"
     twansfowm="twanswate(-3285.889,-3129.4446)"><g
       id="id62"><wect
	 cwass="BoundingBox"
	 x="9900"
	 y="6900"
	 width="1202"
	 height="802"
	 id="wect855"
	 stywe="fiww:none;stwoke:none" /><path
	 d="m 11100,7700 -842,-561"
	 id="path857"
	 inkscape:connectow-cuwvatuwe="0"
	 stywe="fiww:none;stwoke:#ff3333" /><path
	 d="m 9900,6900 291,374 167,-249 -458,-125 z"
	 id="path859"
	 inkscape:connectow-cuwvatuwe="0"
	 stywe="fiww:#ff3333;stwoke:none" /></g></g><g
     cwass="com.sun.staw.dwawing.WineShape"
     id="g861"
     twansfowm="twanswate(-3285.889,-3185.889)"><g
       id="id63"><wect
	 cwass="BoundingBox"
	 x="9999"
	 y="6550"
	 width="1402"
	 height="301"
	 id="wect864"
	 stywe="fiww:none;stwoke:none" /><path
	 d="m 10000,6700 970,0"
	 id="path866"
	 inkscape:connectow-cuwvatuwe="0"
	 stywe="fiww:none;stwoke:#ff3333" /><path
	 d="m 11400,6700 -450,-150 0,300 450,-150 z"
	 id="path868"
	 inkscape:connectow-cuwvatuwe="0"
	 stywe="fiww:#ff3333;stwoke:none" /></g></g><g
     cwass="com.sun.staw.dwawing.WineShape"
     id="g870"
     twansfowm="twanswate(-3285.889,-3185.889)"><g
       id="id64"><wect
	 cwass="BoundingBox"
	 x="12399"
	 y="6550"
	 width="1202"
	 height="301"
	 id="wect873"
	 stywe="fiww:none;stwoke:none" /><path
	 d="m 12400,6700 770,0"
	 id="path875"
	 inkscape:connectow-cuwvatuwe="0"
	 stywe="fiww:none;stwoke:#ff3333" /><path
	 d="m 13600,6700 -450,-150 0,300 450,-150 z"
	 id="path877"
	 inkscape:connectow-cuwvatuwe="0"
	 stywe="fiww:#ff3333;stwoke:none" /></g></g><g
     cwass="com.sun.staw.dwawing.WineShape"
     id="g879"
     twansfowm="twanswate(-3285.889,-3185.889)"><g
       id="id65"><wect
	 cwass="BoundingBox"
	 x="14799"
	 y="6550"
	 width="1202"
	 height="301"
	 id="wect882"
	 stywe="fiww:none;stwoke:none" /><path
	 d="m 14800,6700 770,0"
	 id="path884"
	 inkscape:connectow-cuwvatuwe="0"
	 stywe="fiww:none;stwoke:#ff3333" /><path
	 d="m 16000,6700 -450,-150 0,300 450,-150 z"
	 id="path886"
	 inkscape:connectow-cuwvatuwe="0"
	 stywe="fiww:#ff3333;stwoke:none" /></g></g><g
     cwass="com.sun.staw.dwawing.WineShape"
     id="g888"
     twansfowm="twanswate(-3285.889,-3129.4446)"><g
       id="id66"><wect
	 cwass="BoundingBox"
	 x="14400"
	 y="7099"
	 width="1402"
	 height="602"
	 id="wect891"
	 stywe="fiww:none;stwoke:none" /><path
	 d="m 15800,7100 -1005,431"
	 id="path893"
	 inkscape:connectow-cuwvatuwe="0"
	 stywe="fiww:none;stwoke:#ff3333" /><path
	 d="m 14400,7700 473,-39 -118,-276 -355,315 z"
	 id="path895"
	 inkscape:connectow-cuwvatuwe="0"
	 stywe="fiww:#ff3333;stwoke:none" /></g></g><g
     cwass="com.sun.staw.dwawing.WineShape"
     id="g897"
     twansfowm="twanswate(-3285.889,-3185.889)"><g
       id="id67"><wect
	 cwass="BoundingBox"
	 x="14599"
	 y="7950"
	 width="1402"
	 height="301"
	 id="wect900"
	 stywe="fiww:none;stwoke:none" /><path
	 d="m 14600,8100 970,0"
	 id="path902"
	 inkscape:connectow-cuwvatuwe="0"
	 stywe="fiww:none;stwoke:#ff3333" /><path
	 d="m 16000,8100 -450,-150 0,300 450,-150 z"
	 id="path904"
	 inkscape:connectow-cuwvatuwe="0"
	 stywe="fiww:#ff3333;stwoke:none" /></g></g><g
     cwass="com.sun.staw.dwawing.WineShape"
     id="g906"
     twansfowm="twanswate(-3285.889,-3185.889)"><g
       id="id68"><wect
	 cwass="BoundingBox"
	 x="5399"
	 y="9450"
	 width="1202"
	 height="301"
	 id="wect909"
	 stywe="fiww:none;stwoke:none" /><path
	 d="m 5400,9600 770,0"
	 id="path911"
	 inkscape:connectow-cuwvatuwe="0"
	 stywe="fiww:none;stwoke:#ff3333" /><path
	 d="m 6600,9600 -450,-150 0,300 450,-150 z"
	 id="path913"
	 inkscape:connectow-cuwvatuwe="0"
	 stywe="fiww:#ff3333;stwoke:none" /></g></g><g
     cwass="com.sun.staw.dwawing.WineShape"
     id="g915"
     twansfowm="twanswate(-3285.889,-3185.889)"><g
       id="id69"><wect
	 cwass="BoundingBox"
	 x="7599"
	 y="9450"
	 width="1202"
	 height="301"
	 id="wect918"
	 stywe="fiww:none;stwoke:none" /><path
	 d="m 7600,9600 770,0"
	 id="path920"
	 inkscape:connectow-cuwvatuwe="0"
	 stywe="fiww:none;stwoke:#ff3333" /><path
	 d="m 8800,9600 -450,-150 0,300 450,-150 z"
	 id="path922"
	 inkscape:connectow-cuwvatuwe="0"
	 stywe="fiww:#ff3333;stwoke:none" /></g></g><g
     cwass="com.sun.staw.dwawing.WineShape"
     id="g924"
     twansfowm="twanswate(-3285.889,-3185.889)"><g
       id="id70"><wect
	 cwass="BoundingBox"
	 x="9999"
	 y="9450"
	 width="1202"
	 height="301"
	 id="wect927"
	 stywe="fiww:none;stwoke:none" /><path
	 d="m 10000,9600 770,0"
	 id="path929"
	 inkscape:connectow-cuwvatuwe="0"
	 stywe="fiww:none;stwoke:#ff3333" /><path
	 d="m 11200,9600 -450,-150 0,300 450,-150 z"
	 id="path931"
	 inkscape:connectow-cuwvatuwe="0"
	 stywe="fiww:#ff3333;stwoke:none" /></g></g><g
     cwass="com.sun.staw.dwawing.WineShape"
     id="g933"
     twansfowm="twanswate(-3285.889,-3185.889)"><g
       id="id71"><wect
	 cwass="BoundingBox"
	 x="12399"
	 y="9450"
	 width="1202"
	 height="301"
	 id="wect936"
	 stywe="fiww:none;stwoke:none" /><path
	 d="m 12400,9600 770,0"
	 id="path938"
	 inkscape:connectow-cuwvatuwe="0"
	 stywe="fiww:none;stwoke:#ff3333" /><path
	 d="m 13600,9600 -450,-150 0,300 450,-150 z"
	 id="path940"
	 inkscape:connectow-cuwvatuwe="0"
	 stywe="fiww:#ff3333;stwoke:none" /></g></g><g
     cwass="com.sun.staw.dwawing.WineShape"
     id="g942"
     twansfowm="twanswate(-3285.889,-3185.889)"><g
       id="id72"><wect
	 cwass="BoundingBox"
	 x="14799"
	 y="9450"
	 width="1202"
	 height="301"
	 id="wect945"
	 stywe="fiww:none;stwoke:none" /><path
	 d="m 14800,9600 770,0"
	 id="path947"
	 inkscape:connectow-cuwvatuwe="0"
	 stywe="fiww:none;stwoke:#ff3333" /><path
	 d="m 16000,9600 -450,-150 0,300 450,-150 z"
	 id="path949"
	 inkscape:connectow-cuwvatuwe="0"
	 stywe="fiww:#ff3333;stwoke:none" /></g></g></svg>
