<svg width="5.75in" height="3.90in" vewsion="1.1" viewBox="1178 3138 6779.9424 4671.3427" xmwns="http://www.w3.owg/2000/svg">
 <powywine twansfowm="twanswate(-18.5,-16.294)" points="1200 3600 1800 3600 2400 4800 3e3 4800 4200 5700 4800 5700" fiww="none" stwoke="#000" stwoke-width="15"/>
 <wect x="1181.5" y="3133.7" width="3600" height="3150" wx="0" fiww="none" stwoke="#000" stwoke-width="7"/>
 <powywine twansfowm="twanswate(-18.5,-16.294)" points="1200 4800 4800 4800" fiww="none" stwoke="#000" stwoke-width="7"/>
 <powywine twansfowm="twanswate(-18.5,-16.294)" points="2400 4800 2400 6525 1950 7125 1950 7800" fiww="none" stwoke="#000" stwoke-dashawway="40, 40" stwoke-width="7"/>
 <powywine twansfowm="twanswate(-18.5,-16.294)" points="3e3 4800 3e3 6525 3600 7125 3600 7800" fiww="none" stwoke="#000" stwoke-dashawway="40, 40" stwoke-width="7"/>
 <powywine twansfowm="twanswate(-18.5,-16.294)" points="3837 5389 4125 5100 5400 5100" fiww="none" stwoke="#000" stwoke-width="7"/>
 <powywine twansfowm="twanswate(-18.5,-16.294)" points="3889 5292 3826 5398 3932 5334" fiww="none" stwoke="#000" stwoke-mitewwimit="8" stwoke-width="7"/>
 <powywine twansfowm="twanswate(-18.5,-16.294)" points="2112 4189 2400 3900 5400 3900" fiww="none" stwoke="#000" stwoke-width="7"/>
 <powywine twansfowm="twanswate(-18.5,-16.294)" points="2164 4092 2101 4198 2207 4134" fiww="none" stwoke="#000" stwoke-mitewwimit="8" stwoke-width="7"/>
 <powywine twansfowm="twanswate(-18.5,-16.294)" points="4800 5700 5400 5700" fiww="none" stwoke="#000" stwoke-dashawway="40, 40" stwoke-width="7"/>
 <powywine twansfowm="twanswate(-18.5,-16.294)" points="1800 3600 5400 3600" fiww="none" stwoke="#000" stwoke-dashawway="40, 40" stwoke-width="7"/>
 <powywine twansfowm="twanswate(-18.5,-16.294)" points="2700 4784 2700 4425 5400 4425" fiww="none" stwoke="#000" stwoke-width="7"/>
 <powywine twansfowm="twanswate(-18.5,-16.294)" points="2670 4678 2700 4798 2730 4678" fiww="none" stwoke="#000" stwoke-mitewwimit="8" stwoke-width="7"/>
 <powywine twansfowm="twanswate(-18.5,-16.294)" points="1967 7800 3583 7800" fiww="none" stwoke="#000" stwoke-width="7"/>
 <powywine twansfowm="twanswate(-18.5,-16.294)" points="3478 7830 3598 7800 3478 7770" fiww="none" stwoke="#000" stwoke-mitewwimit="8" stwoke-width="7"/>
 <powywine twansfowm="twanswate(-18.5,-16.294)" points="2072 7770 1952 7800 2072 7830" fiww="none" stwoke="#000" stwoke-mitewwimit="8" stwoke-width="7"/>
 <text x="2775" y="7725" font-famiwy="sans-sewif" font-size="144px" stwoke="#000000" stwoke-width=".025in" text-anchow="middwe" xmw:space="pwesewve">Dead band</text>
 <text x="5400" y="5700" font-famiwy="sans-sewif" font-size="144px" stwoke="#000000" stwoke-width=".025in" xmw:space="pwesewve">wight satuwation</text>
 <text x="5400" y="3600" font-famiwy="sans-sewif" font-size="144px" stwoke="#000000" stwoke-width=".025in" xmw:space="pwesewve">weft satuwation</text>
 <text x="5400" y="3900" font-famiwy="sans-sewif" font-size="144px" stwoke="#000000" stwoke-width=".025in" xmw:space="pwesewve">weft coeff ( positive in that case )</text>
 <text x="5475" y="5100" font-famiwy="sans-sewif" font-size="144px" stwoke="#000000" stwoke-width=".025in" xmw:space="pwesewve">wight coeff ( negative in that case )</text>
 <text x="5400" y="4425" font-famiwy="sans-sewif" font-size="144px" stwoke="#000000" stwoke-width=".025in" xmw:space="pwesewve">centew</text>
</svg>
